<?xml version="1.0" encoding="utf-8"?>
<!-- Generator: Adobe Illustrator 19.2.0, SVG Export Plug-In . SVG Version: 6.00 Build 0)  -->
<svg version="1.1" id="Layer_3" xmlns="http://www.w3.org/2000/svg" xmlns:xlink="http://www.w3.org/1999/xlink" x="0px" y="0px"
	 width="307px" height="85px" viewBox="0 0 307 85" style="enable-background:new 0 0 307 85;" xml:space="preserve">
<style type="text/css">
	.st0{fill:#80929B;}
	.st1{fill:#B2BDC3;}
	.st2{fill:#002537;}
</style>
<g>
	<path class="st0" d="M124.3,78.8l-2,2.5h-0.2l-2-2.5v4.6h-0.7v-5.9h0.5l2.3,2.9l2.3-2.9h0.5v5.9h-0.7V78.8z"/>
	<path class="st0" d="M126.6,80.5c0-1.7,1.1-3.1,2.9-3.1c1.8,0,2.9,1.3,2.9,3.1c0,1.7-1.1,3.1-2.9,3.1
		C127.8,83.5,126.6,82.2,126.6,80.5z M131.7,80.5c0-1.3-0.9-2.4-2.2-2.4c-1.3,0-2.2,1.1-2.2,2.4c0,1.3,0.8,2.4,2.2,2.4
		C130.9,82.9,131.7,81.8,131.7,80.5z"/>
	<path class="st0" d="M133.2,77.5h4.6v0.6h-2v5.2h-0.7v-5.2h-1.9V77.5z"/>
	<path class="st0" d="M138.6,80.5c0-1.7,1.1-3.1,2.9-3.1c1.8,0,2.9,1.3,2.9,3.1c0,1.7-1.1,3.1-2.9,3.1
		C139.8,83.5,138.6,82.2,138.6,80.5z M143.7,80.5c0-1.3-0.9-2.4-2.2-2.4c-1.3,0-2.2,1.1-2.2,2.4c0,1.3,0.8,2.4,2.2,2.4
		C142.9,82.9,143.7,81.8,143.7,80.5z"/>
	<path class="st0" d="M148.3,77.5c1.4,0,2.2,0.7,2.2,2c0,1-0.5,1.6-1.3,1.8v0l1.5,1.9v0.2H150l-1.5-1.9h-1.7v1.9H146v-5.9H148.3z
		 M148.3,78.2h-1.6v2.6h1.7c0.9,0,1.5-0.4,1.5-1.3C149.9,78.6,149.2,78.2,148.3,78.2z"/>
	<path class="st0" d="M158,77.5h0.8l-2.2,3.6v2.2H156v-2.2l-2.2-3.6h0.8l1.5,2.6l0.2,0.4h0l0.2-0.4L158,77.5z"/>
	<path class="st0" d="M164.5,83.4h-0.7l-0.6-1.3h-3.1l-0.5,1.3h-0.7l2.5-5.9h0.6L164.5,83.4z M160.3,81.4h2.6l-1.3-3L160.3,81.4z"/>
	<path class="st0" d="M170,82.8c0,0-0.6,0.8-1.9,0.8c-1.7,0-2.9-1.3-2.9-3.1c0-1.7,1.2-3.1,2.9-3.1c1.3,0,1.9,0.8,1.9,0.8l-0.4,0.5
		c0,0-0.6-0.6-1.5-0.6c-1.3,0-2.2,1.1-2.2,2.4c0,1.3,0.9,2.4,2.2,2.4c1,0,1.5-0.6,1.5-0.6L170,82.8z"/>
	<path class="st0" d="M176.2,83.4h-0.7v-2.6h-3.3v2.6h-0.7v-5.9h0.7v2.7h3.3v-2.7h0.7V83.4z"/>
	<path class="st0" d="M177.6,77.5h4.6v0.6h-2v5.2h-0.7v-5.2h-1.9V77.5z"/>
	<path class="st0" d="M183.6,82.3c0,0,0.6,0.6,1.7,0.6c1,0,1.4-0.4,1.4-1c0-0.5-0.3-0.8-1.5-1.2c-1.3-0.4-1.9-0.8-1.9-1.7
		c0-1,0.8-1.6,2.1-1.6c1.4,0,1.9,0.6,1.9,0.6l-0.4,0.6c0,0-0.5-0.5-1.6-0.5c-0.8,0-1.4,0.3-1.4,0.9c0,0.5,0.4,0.7,1.5,1.1
		c1.5,0.4,1.9,0.9,1.9,1.8c0,0.9-0.7,1.7-2.1,1.7c-1.4,0-2.1-0.7-2.1-0.7L183.6,82.3z"/>
</g>
<path class="st1" d="M170.9,22.5c0,1.6-0.2,3.2-1,4.7c-1.2,2.2-3.2,3.8-6.9,4.8l-9.5,2.5v14.2c0,1.7-1.5,2.1-1.5,2.1l-4.3,1.2V32.9
	c0-0.7,0.4-2.9,3.2-3.7c0,0,10.5-2.8,10.5-2.8c2-0.5,3.7-1.4,3.7-3.3l0-3.3L141.9,26v15.4c0,1.7-1.5,2.1-1.5,2.1l-4.3,1.2
	c0,0,0-24.7,0-24.7c0-4.3,1.6-7.1,3.9-9.1c2.9-2.7,7.7-4,7.7-4l23.2-6.2V5c0,1.7-1.5,2.1-1.5,2.1l-20.9,5.6
	c-5.8,1.6-6.7,5.2-6.7,7.1V20l29-7.8C170.9,12.2,170.9,22.4,170.9,22.5z"/>
<g>
	<g>
		<g>
			<path class="st2" d="M88.6,59.4c-0.8-0.1-1.5-0.1-2.2,0c-3.2,0.5-5.5,3.2-5.5,6.6c0,4.1,2.8,7,6.7,7c3.8,0,6.7-3,6.7-7
				C94.2,62.7,91.9,59.9,88.6,59.4z M87.6,70.8c-2.6,0-4.4-1.9-4.4-4.7c0-2.4,1.3-4.1,3.5-4.4c0.2,0,0.5-0.1,0.8-0.1
				c0.3,0,0.5,0,0.8,0.1c2.1,0.3,3.6,2.2,3.6,4.4C91.9,68.8,90.1,70.8,87.6,70.8z"/>
			<path class="st2" d="M219,59.4c-0.8-0.1-1.5-0.1-2.2,0c-3.2,0.5-5.5,3.2-5.5,6.6c0,4.1,2.8,7,6.7,7c3.8,0,6.7-3,6.7-7
				C224.7,62.7,222.3,59.9,219,59.4z M218.1,70.8c-2.6,0-4.4-1.9-4.4-4.7c0-2.4,1.3-4.1,3.5-4.4c0.2,0,0.5-0.1,0.8-0.1
				c0.3,0,0.5,0,0.8,0.1c2.1,0.3,3.6,2.2,3.6,4.4C222.4,68.8,220.6,70.8,218.1,70.8z"/>
			<path class="st2" d="M106.8,59.5H105V67c0,2.6-1.6,3.7-3.4,3.7s-3.4-1.2-3.4-3.7l0-7.5h-1.8c-0.3,0-0.5,0.2-0.5,0.5v7
				c0,4,2.7,6,5.8,6c3.1,0,5.8-2.1,5.8-6l0-7C107.3,59.7,107.1,59.5,106.8,59.5z"/>
			<path class="st2" d="M146.5,60v13h1.8c0.3,0,0.5-0.2,0.5-0.5v-13H147C146.7,59.5,146.5,59.7,146.5,60z"/>
			<path class="st2" d="M209.2,59.5h-1.8l0,12.2c0,1.5-1.4,2.8-3.1,2.8h-1.2v1.7c0,0.3,0.2,0.5,0.5,0.5c0,0,0.7,0,0.7,0
				c1.5,0,3-0.6,4.1-1.7c1-1,1.4-2.1,1.4-3.3l0-11.6C209.7,59.7,209.5,59.5,209.2,59.5z"/>
			<path class="st2" d="M174.8,59.5h-9.6c-0.3,0-0.5,0.2-0.5,0.5v12.4c0,0.3,0.2,0.5,0.5,0.5h9.6c0.3,0,0.5-0.2,0.5-0.5v-1.7H167
				v-3.4h6.8c0.3,0,0.5-0.2,0.5-0.5V65H167v-3.3h8.3V60C175.3,59.7,175.1,59.5,174.8,59.5z"/>
			<path class="st2" d="M129.3,61.7h5V60c0-0.1-0.1-0.3-0.2-0.4c-0.1-0.1-0.2-0.2-0.4-0.2l0,0h-11.3l0,0c-0.2,0-0.3,0.1-0.4,0.2
				c-0.1,0.1-0.1,0.2-0.1,0.3v1.7h5l0,11.2h2.3L129.3,61.7z"/>
			<path class="st2" d="M235.9,59.5L235.9,59.5h-11.3h0c-0.3,0-0.5,0.2-0.5,0.5v1.7h0h5l0,11.2h2.3l0-11.2h5h0V60
				C236.4,59.7,236.1,59.5,235.9,59.5z"/>
			<path class="st2" d="M120.7,59.5h-1.9l0,9.2l-7.6-9.2h-1.4c-0.3,0-0.5,0.2-0.5,0.5v12.4c0,0.3,0.2,0.5,0.5,0.5h1.9v-9l7.4,9h1.5
				c0.3,0,0.5-0.2,0.5-0.5V60C121.2,59.7,120.9,59.5,120.7,59.5z"/>
			<path class="st2" d="M162.2,59.5h-1.9l0,9.2l-7.6-9.2h-1.4c-0.3,0-0.5,0.2-0.5,0.5v12.4c0,0.3,0.2,0.5,0.5,0.5h1.9l0-9l7.4,9h1.5
				c0.3,0,0.5-0.2,0.5-0.5V60C162.7,59.7,162.5,59.5,162.2,59.5z"/>
			<path class="st2" d="M139.6,59.7c-0.1-0.2-0.3-0.3-0.5-0.3h-0.9c-0.2,0-0.4,0.1-0.5,0.3l-6.4,12.5c0,0.1-0.1,0.2-0.1,0.2
				c0,0.3,0.2,0.5,0.5,0.5h1.7l1.6-3.2h7l1.6,3.2h1.7c0.3,0,0.5-0.2,0.5-0.5c0-0.1,0-0.2-0.1-0.2L139.6,59.7z M136.2,67.7l2.5-4.9
				l2.5,4.9H136.2z"/>
			<path class="st2" d="M202,69.7l1.6,3.2h1.7c0.3,0,0.5-0.2,0.5-0.5c0-0.1,0-0.2-0.1-0.2l-6.4-12.5c-0.1-0.2-0.3-0.3-0.5-0.3h-0.9
				c-0.2,0-0.4,0.1-0.5,0.3l-6.4,12.5c0,0.1-0.1,0.2-0.1,0.2c0,0.3,0.2,0.5,0.5,0.5h1.7l1.6-3.2H202z M198.5,62.9l2.5,4.9h-4.9
				L198.5,62.9z"/>
			<path class="st2" d="M192.7,64.3c0-2.9-2.1-4.8-5.4-4.8h-4.9c-0.3,0-0.5,0.2-0.5,0.5v13h1.8c0.3,0,0.5-0.2,0.5-0.5v-0.6v-2.8h3.1
				C190.7,69.1,192.7,67.1,192.7,64.3z M187.4,66.8h-3.1v-5.1h3.1c2,0,3.1,1,3.1,2.6C190.5,65.8,189.4,66.8,187.4,66.8z"/>
		</g>
		<path class="st2" d="M81,61.2c0,0.3-0.2,0.5-0.5,0.5l-7.5,0V65h6.4v1.7c0,0.3-0.2,0.5-0.5,0.5h-5.9l0,5.2c0,0.3-0.2,0.5-0.5,0.5
			l-1.8,0V60c0-0.3,0.2-0.5,0.5-0.5H81V61.2z"/>
	</g>
	<g>
		<path class="st2" d="M235.2,71.4c0.1,0,0.2,0.1,0.2,0.2c0,0.1-0.1,0.2-0.2,0.2H235v-0.4H235.2z M234.8,71.2v1h0.2v-0.3h0.3
			l0.2,0.3h0.2v0l-0.2-0.3c0.1-0.1,0.2-0.2,0.2-0.3c0-0.2-0.2-0.4-0.4-0.4H234.8z M236.1,71.7c0,0.6-0.4,1-0.9,1
			c-0.6,0-0.9-0.4-0.9-1c0-0.6,0.4-1,0.9-1C235.8,70.7,236.1,71.2,236.1,71.7 M236.4,71.7c0-0.7-0.4-1.2-1.2-1.2
			c-0.7,0-1.2,0.5-1.2,1.2c0,0.6,0.4,1.2,1.2,1.2C235.9,72.9,236.4,72.4,236.4,71.7"/>
	</g>
</g>
</svg>
