<?xml version="1.0" encoding="utf-8"?>
<!-- Generator: Adobe Illustrator 19.2.0, SVG Export Plug-In . SVG Version: 6.00 Build 0)  -->
<svg version="1.1" id="Layer_2" xmlns="http://www.w3.org/2000/svg" xmlns:xlink="http://www.w3.org/1999/xlink" x="0px" y="0px"
	 width="307px" height="85px" viewBox="0 0 307 85" style="enable-background:new 0 0 307 85;" xml:space="preserve">
<style type="text/css">
	.st0{fill:#F05349;}
	.st1{fill:#002537;}
</style>
<g>
	<g>
		<path class="st0" d="M105,82.7c0,0,0.6,0.6,1.7,0.6c1,0,1.4-0.4,1.4-1c0-0.5-0.3-0.8-1.5-1.2c-1.3-0.4-1.9-0.8-1.9-1.7
			c0-1,0.8-1.6,2.1-1.6c1.4,0,1.9,0.6,1.9,0.6l-0.4,0.6c0,0-0.5-0.5-1.6-0.5c-0.8,0-1.4,0.3-1.4,0.9c0,0.5,0.4,0.7,1.5,1.1
			c1.5,0.4,1.9,0.9,1.9,1.8c0,0.9-0.7,1.7-2.1,1.7s-2.1-0.7-2.1-0.7L105,82.7z"/>
		<path class="st0" d="M115.2,83.8h-0.7l-0.6-1.3h-3.1l-0.5,1.3h-0.7l2.5-5.9h0.6L115.2,83.8z M111.1,81.9h2.6l-1.3-3L111.1,81.9z"
			/>
		<path class="st0" d="M117.1,83.8h-0.7v-5.9h0.7V83.8z"/>
		<path class="st0" d="M119.1,83.8v-5.9h0.7v5.2h3v0.6H119.1z"/>
		<path class="st0" d="M125,83.8h-0.7v-5.9h0.7V83.8z"/>
		<path class="st0" d="M131.9,83.8h-0.5l-3.7-4.7v4.7H127v-5.9h0.5l3.7,4.6v-4.6h0.7V83.8z"/>
		<path class="st0" d="M138.3,81.2h-2.1v-0.6h2.8V81c0,1.8-1,2.9-2.6,2.9c-1.8,0-2.9-1.3-2.9-3.1c0-1.7,1.1-3.1,2.9-3.1
			c1.4,0,2.1,0.8,2.1,0.8l-0.4,0.5c0,0-0.6-0.6-1.7-0.6c-1.4,0-2.2,1.1-2.2,2.4c0,1.3,0.8,2.4,2.2,2.4
			C137.5,83.3,138.3,82.5,138.3,81.2L138.3,81.2z"/>
		<path class="st0" d="M147.6,83.2c0,0-0.6,0.8-1.9,0.8c-1.7,0-2.9-1.3-2.9-3.1c0-1.7,1.2-3.1,2.9-3.1c1.3,0,1.9,0.8,1.9,0.8
			l-0.4,0.5c0,0-0.6-0.6-1.5-0.6c-1.3,0-2.2,1.1-2.2,2.4c0,1.3,0.9,2.4,2.2,2.4c1,0,1.5-0.6,1.5-0.6L147.6,83.2z"/>
		<path class="st0" d="M153.9,83.8h-0.7l-0.6-1.3h-3.1l-0.5,1.3h-0.7l2.5-5.9h0.6L153.9,83.8z M149.8,81.9h2.6l-1.3-3L149.8,81.9z"
			/>
		<path class="st0" d="M154,77.9h4.6v0.6h-2v5.2H156v-5.2H154V77.9z"/>
		<path class="st0" d="M164.4,83.8h-0.7l-0.6-1.3H160l-0.5,1.3h-0.7l2.5-5.9h0.6L164.4,83.8z M160.3,81.9h2.6l-1.3-3L160.3,81.9z"/>
		<path class="st0" d="M170.4,79.2l-2,2.5h-0.2l-2-2.5v4.6h-0.7v-5.9h0.5l2.3,2.9l2.3-2.9h0.5v5.9h-0.7V79.2z"/>
		<path class="st0" d="M178,83.8h-0.7l-0.6-1.3h-3.1l-0.5,1.3h-0.7l2.5-5.9h0.6L178,83.8z M173.9,81.9h2.6l-1.3-3L173.9,81.9z"/>
		<path class="st0" d="M181.6,77.9c1.4,0,2.2,0.7,2.2,2c0,1-0.5,1.6-1.3,1.8v0l1.5,1.9v0.2h-0.7l-1.5-1.9H180v1.9h-0.7v-5.9H181.6z
			 M181.6,78.6H180v2.6h1.7c0.9,0,1.5-0.4,1.5-1.3C183.1,79,182.5,78.6,181.6,78.6z"/>
		<path class="st0" d="M190.4,83.8h-0.7l-0.6-1.3H186l-0.5,1.3h-0.7l2.5-5.9h0.6L190.4,83.8z M186.3,81.9h2.6l-1.3-3L186.3,81.9z"/>
		<path class="st0" d="M196.6,83.8h-0.5l-3.7-4.7v4.7h-0.7v-5.9h0.5l3.7,4.6v-4.6h0.7V83.8z"/>
		<path class="st0" d="M198.6,82.7c0,0,0.6,0.6,1.7,0.6c1,0,1.4-0.4,1.4-1c0-0.5-0.3-0.8-1.5-1.2c-1.3-0.4-1.9-0.8-1.9-1.7
			c0-1,0.8-1.6,2.1-1.6c1.4,0,1.9,0.6,1.9,0.6l-0.4,0.6c0,0-0.5-0.5-1.6-0.5c-0.8,0-1.4,0.3-1.4,0.9c0,0.5,0.4,0.7,1.5,1.1
			c1.5,0.4,1.9,0.9,1.9,1.8c0,0.9-0.7,1.7-2.1,1.7s-2.1-0.7-2.1-0.7L198.6,82.7z"/>
	</g>
	<path class="st0" d="M170.9,22.9c0,1.6-0.2,3.2-1,4.7c-1.2,2.2-3.2,3.8-6.9,4.8l-9.5,2.5v14.2c0,1.7-1.5,2.1-1.5,2.1l-4.3,1.2V33.3
		c0-0.7,0.4-2.9,3.2-3.7c0,0,10.5-2.8,10.5-2.8c2-0.5,3.7-1.4,3.7-3.3l0-3.3l-23.2,6.2v15.4c0,1.7-1.5,2.1-1.5,2.1l-4.3,1.2
		c0,0,0-24.7,0-24.7c0-4.3,1.6-7.1,3.9-9.1c2.9-2.7,7.7-4,7.7-4l23.2-6.2v4.3c0,1.7-1.5,2.1-1.5,2.1l-20.9,5.6
		c-5.8,1.6-6.7,5.2-6.7,7.1v0.3l29-7.8C170.9,12.7,170.9,22.9,170.9,22.9z"/>
	<g>
		<g>
			<g>
				<path class="st1" d="M88.6,59.8c-0.8-0.1-1.5-0.1-2.2,0c-3.2,0.5-5.5,3.2-5.5,6.6c0,4.1,2.8,7,6.7,7c3.8,0,6.7-3,6.7-7
					C94.2,63.1,91.9,60.3,88.6,59.8z M87.6,71.2c-2.6,0-4.4-1.9-4.4-4.7c0-2.4,1.3-4.1,3.5-4.4c0.2,0,0.5-0.1,0.8-0.1
					c0.3,0,0.5,0,0.8,0.1c2.1,0.3,3.6,2.2,3.6,4.4C91.9,69.2,90.1,71.2,87.6,71.2z"/>
				<path class="st1" d="M219,59.8c-0.8-0.1-1.5-0.1-2.2,0c-3.2,0.5-5.5,3.2-5.5,6.6c0,4.1,2.8,7,6.7,7c3.8,0,6.7-3,6.7-7
					C224.7,63.1,222.3,60.3,219,59.8z M218.1,71.2c-2.6,0-4.4-1.9-4.4-4.7c0-2.4,1.3-4.1,3.5-4.4c0.2,0,0.5-0.1,0.8-0.1
					c0.3,0,0.5,0,0.8,0.1c2.1,0.3,3.6,2.2,3.6,4.4C222.4,69.2,220.6,71.2,218.1,71.2z"/>
				<path class="st1" d="M106.8,59.9H105v7.5c0,2.6-1.6,3.7-3.4,3.7s-3.4-1.2-3.4-3.7l0-7.5h-1.8c-0.3,0-0.5,0.2-0.5,0.5v7
					c0,4,2.7,6,5.8,6c3.1,0,5.8-2.1,5.8-6l0-7C107.3,60.1,107.1,59.9,106.8,59.9z"/>
				<path class="st1" d="M146.5,60.4v13h1.8c0.3,0,0.5-0.2,0.5-0.5v-13H147C146.7,59.9,146.5,60.1,146.5,60.4z"/>
				<path class="st1" d="M209.2,59.9h-1.8l0,12.2c0,1.5-1.4,2.8-3.1,2.8h-1.2v1.7c0,0.3,0.2,0.5,0.5,0.5c0,0,0.7,0,0.7,0
					c1.5,0,3-0.6,4.1-1.7c1-1,1.4-2.1,1.4-3.3l0-11.6C209.7,60.1,209.5,59.9,209.2,59.9z"/>
				<path class="st1" d="M174.8,59.9h-9.6c-0.3,0-0.5,0.2-0.5,0.5v12.4c0,0.3,0.2,0.5,0.5,0.5h9.6c0.3,0,0.5-0.2,0.5-0.5v-1.7H167
					v-3.4h6.8c0.3,0,0.5-0.2,0.5-0.5v-1.7H167v-3.3h8.3v-1.7C175.3,60.1,175.1,59.9,174.8,59.9z"/>
				<path class="st1" d="M129.3,62.1h5v-1.7c0-0.1-0.1-0.3-0.2-0.4c-0.1-0.1-0.2-0.2-0.4-0.2l0,0h-11.3l0,0c-0.2,0-0.3,0.1-0.4,0.2
					c-0.1,0.1-0.1,0.2-0.1,0.3v1.7h5l0,11.2h2.3L129.3,62.1z"/>
				<path class="st1" d="M235.9,59.9L235.9,59.9h-11.3h0c-0.3,0-0.5,0.2-0.5,0.5v1.7h0h5l0,11.2h2.3l0-11.2h5h0v-1.7
					C236.4,60.1,236.1,59.9,235.9,59.9z"/>
				<path class="st1" d="M120.7,59.9h-1.9l0,9.2l-7.6-9.2h-1.4c-0.3,0-0.5,0.2-0.5,0.5v12.4c0,0.3,0.2,0.5,0.5,0.5h1.9v-9l7.4,9h1.5
					c0.3,0,0.5-0.2,0.5-0.5V60.4C121.2,60.1,120.9,59.9,120.7,59.9z"/>
				<path class="st1" d="M162.2,59.9h-1.9l0,9.2l-7.6-9.2h-1.4c-0.3,0-0.5,0.2-0.5,0.5v12.4c0,0.3,0.2,0.5,0.5,0.5h1.9l0-9l7.4,9
					h1.5c0.3,0,0.5-0.2,0.5-0.5V60.4C162.7,60.1,162.5,59.9,162.2,59.9z"/>
				<path class="st1" d="M139.6,60.1c-0.1-0.2-0.3-0.3-0.5-0.3h-0.9c-0.2,0-0.4,0.1-0.5,0.3l-6.4,12.5c0,0.1-0.1,0.2-0.1,0.2
					c0,0.3,0.2,0.5,0.5,0.5h1.7l1.6-3.2h7l1.6,3.2h1.7c0.3,0,0.5-0.2,0.5-0.5c0-0.1,0-0.2-0.1-0.2L139.6,60.1z M136.2,68.1l2.5-4.9
					l2.5,4.9H136.2z"/>
				<path class="st1" d="M202,70.1l1.6,3.2h1.7c0.3,0,0.5-0.2,0.5-0.5c0-0.1,0-0.2-0.1-0.2l-6.4-12.5c-0.1-0.2-0.3-0.3-0.5-0.3h-0.9
					c-0.2,0-0.4,0.1-0.5,0.3l-6.4,12.5c0,0.1-0.1,0.2-0.1,0.2c0,0.3,0.2,0.5,0.5,0.5h1.7l1.6-3.2H202z M198.5,63.3l2.5,4.9h-4.9
					L198.5,63.3z"/>
				<path class="st1" d="M192.7,64.7c0-2.9-2.1-4.8-5.4-4.8h-4.9c-0.3,0-0.5,0.2-0.5,0.5v13h1.8c0.3,0,0.5-0.2,0.5-0.5v-0.6v-2.8
					h3.1C190.7,69.5,192.7,67.5,192.7,64.7z M187.4,67.2h-3.1v-5.1h3.1c2,0,3.1,1,3.1,2.6C190.5,66.2,189.4,67.2,187.4,67.2z"/>
			</g>
			<path class="st1" d="M81,61.6c0,0.3-0.2,0.5-0.5,0.5l-7.5,0v3.3h6.4v1.7c0,0.3-0.2,0.5-0.5,0.5h-5.9l0,5.2c0,0.3-0.2,0.5-0.5,0.5
				l-1.8,0v-13c0-0.3,0.2-0.5,0.5-0.5H81V61.6z"/>
		</g>
		<g>
			<path class="st1" d="M235.2,71.8c0.1,0,0.2,0.1,0.2,0.2c0,0.1-0.1,0.2-0.2,0.2H235v-0.4H235.2z M234.8,71.6v1h0.2v-0.3h0.3
				l0.2,0.3h0.2v0l-0.2-0.3c0.1-0.1,0.2-0.2,0.2-0.3c0-0.2-0.2-0.4-0.4-0.4H234.8z M236.1,72.1c0,0.6-0.4,1-0.9,1
				c-0.6,0-0.9-0.4-0.9-1c0-0.6,0.4-1,0.9-1C235.8,71.2,236.1,71.6,236.1,72.1 M236.4,72.1c0-0.7-0.4-1.2-1.2-1.2
				c-0.7,0-1.2,0.5-1.2,1.2c0,0.6,0.4,1.2,1.2,1.2C235.9,73.3,236.4,72.8,236.4,72.1"/>
		</g>
	</g>
</g>
</svg>
