<?xml version="1.0" encoding="utf-8"?>
<!-- Generator: Adobe Illustrator 19.2.0, SVG Export Plug-In . SVG Version: 6.00 Build 0)  -->
<svg version="1.1" id="Layer_2" xmlns="http://www.w3.org/2000/svg" xmlns:xlink="http://www.w3.org/1999/xlink" x="0px" y="0px"
	 width="307px" height="85px" viewBox="0 0 307 85" style="enable-background:new 0 0 307 85;" xml:space="preserve">
<style type="text/css">
	.st0{fill:#F05349;}
	.st1{fill:#002537;}
</style>
<g>
	<g>
		<path class="st0" d="M35.4,82.7c0,0,0.6,0.6,1.7,0.6c1,0,1.4-0.4,1.4-1c0-0.5-0.3-0.8-1.5-1.2c-1.3-0.4-1.9-0.8-1.9-1.7
			c0-1,0.8-1.6,2.1-1.6c1.4,0,1.9,0.6,1.9,0.6L38.6,79c0,0-0.5-0.5-1.6-0.5c-0.8,0-1.4,0.3-1.4,0.9c0,0.5,0.4,0.7,1.5,1.1
			c1.5,0.4,1.9,0.9,1.9,1.8c0,0.9-0.7,1.7-2.1,1.7S35,83.2,35,83.2L35.4,82.7z"/>
		<path class="st0" d="M45.5,83.8h-0.7l-0.6-1.3h-3.1l-0.5,1.3h-0.7l2.5-5.9H43L45.5,83.8z M41.4,81.9H44l-1.3-3L41.4,81.9z"/>
		<path class="st0" d="M47.5,83.8h-0.7v-5.9h0.7V83.8z"/>
		<path class="st0" d="M49.5,83.8v-5.9h0.7v5.2h3v0.6H49.5z"/>
		<path class="st0" d="M55.4,83.8h-0.7v-5.9h0.7V83.8z"/>
		<path class="st0" d="M62.3,83.8h-0.5L58,79.1v4.7h-0.7v-5.9h0.5l3.7,4.6v-4.6h0.7V83.8z"/>
		<path class="st0" d="M68.7,81.2h-2.1v-0.6h2.8V81c0,1.8-1,2.9-2.6,2.9c-1.8,0-2.9-1.3-2.9-3.1c0-1.7,1.1-3.1,2.9-3.1
			c1.4,0,2.1,0.8,2.1,0.8l-0.4,0.5c0,0-0.6-0.6-1.7-0.6c-1.4,0-2.2,1.1-2.2,2.4c0,1.3,0.8,2.4,2.2,2.4
			C67.9,83.3,68.7,82.5,68.7,81.2L68.7,81.2z"/>
		<path class="st0" d="M77.9,83.2c0,0-0.6,0.8-1.9,0.8c-1.7,0-2.9-1.3-2.9-3.1c0-1.7,1.2-3.1,2.9-3.1c1.3,0,1.9,0.8,1.9,0.8
			l-0.4,0.5c0,0-0.6-0.6-1.5-0.6c-1.3,0-2.2,1.1-2.2,2.4c0,1.3,0.9,2.4,2.2,2.4c1,0,1.5-0.6,1.5-0.6L77.9,83.2z"/>
		<path class="st0" d="M84.3,83.8h-0.7L83,82.5h-3.1l-0.5,1.3h-0.7l2.5-5.9h0.6L84.3,83.8z M80.2,81.9h2.6l-1.3-3L80.2,81.9z"/>
		<path class="st0" d="M84.4,77.9H89v0.6h-2v5.2h-0.7v-5.2h-1.9V77.9z"/>
		<path class="st0" d="M94.7,83.8H94l-0.6-1.3h-3.1l-0.5,1.3h-0.7l2.5-5.9h0.6L94.7,83.8z M90.6,81.9h2.6l-1.3-3L90.6,81.9z"/>
		<path class="st0" d="M100.8,79.2l-2,2.5h-0.2l-2-2.5v4.6H96v-5.9h0.5l2.3,2.9l2.3-2.9h0.5v5.9h-0.7V79.2z"/>
		<path class="st0" d="M108.4,83.8h-0.7l-0.6-1.3H104l-0.5,1.3h-0.7l2.5-5.9h0.6L108.4,83.8z M104.3,81.9h2.6l-1.3-3L104.3,81.9z"/>
		<path class="st0" d="M112,77.9c1.4,0,2.2,0.7,2.2,2c0,1-0.5,1.6-1.3,1.8v0l1.5,1.9v0.2h-0.7l-1.5-1.9h-1.7v1.9h-0.7v-5.9H112z
			 M112,78.6h-1.6v2.6h1.7c0.9,0,1.5-0.4,1.5-1.3C113.5,79,112.9,78.6,112,78.6z"/>
		<path class="st0" d="M120.8,83.8h-0.7l-0.6-1.3h-3.1l-0.5,1.3h-0.7l2.5-5.9h0.6L120.8,83.8z M116.7,81.9h2.6l-1.3-3L116.7,81.9z"
			/>
		<path class="st0" d="M127,83.8h-0.5l-3.7-4.7v4.7h-0.7v-5.9h0.5l3.7,4.6v-4.6h0.7V83.8z"/>
		<path class="st0" d="M128.9,82.7c0,0,0.6,0.6,1.7,0.6c1,0,1.4-0.4,1.4-1c0-0.5-0.3-0.8-1.5-1.2c-1.3-0.4-1.9-0.8-1.9-1.7
			c0-1,0.8-1.6,2.1-1.6c1.4,0,1.9,0.6,1.9,0.6l-0.4,0.6c0,0-0.5-0.5-1.6-0.5c-0.8,0-1.4,0.3-1.4,0.9c0,0.5,0.4,0.7,1.5,1.1
			c1.5,0.4,1.9,0.9,1.9,1.8c0,0.9-0.7,1.7-2.1,1.7s-2.1-0.7-2.1-0.7L128.9,82.7z"/>
	</g>
	<path class="st0" d="M101.3,22.9c0,1.6-0.2,3.2-1,4.7c-1.2,2.2-3.2,3.8-6.9,4.8l-9.5,2.5v14.2c0,1.7-1.5,2.1-1.5,2.1l-4.3,1.2V33.3
		c0-0.7,0.4-2.9,3.2-3.7c0,0,10.5-2.8,10.5-2.8c2-0.5,3.7-1.4,3.7-3.3l0-3.3l-23.2,6.2v15.4c0,1.7-1.5,2.1-1.5,2.1l-4.3,1.2
		c0,0,0-24.7,0-24.7c0-4.3,1.6-7.1,3.9-9.1c2.9-2.7,7.7-4,7.7-4l23.2-6.2v4.3c0,1.7-1.5,2.1-1.5,2.1l-20.9,5.6
		c-5.8,1.6-6.7,5.2-6.7,7.1v0.3l29-7.8C101.3,12.7,101.3,22.9,101.3,22.9z"/>
	<g>
		<g>
			<g>
				<path class="st1" d="M18.9,59.8c-0.8-0.1-1.5-0.1-2.2,0c-3.2,0.5-5.5,3.2-5.5,6.6c0,4.1,2.8,7,6.7,7c3.8,0,6.7-3,6.7-7
					C24.6,63.1,22.2,60.3,18.9,59.8z M18,71.2c-2.6,0-4.4-1.9-4.4-4.7c0-2.4,1.3-4.1,3.5-4.4c0.2,0,0.5-0.1,0.8-0.1
					c0.3,0,0.5,0,0.8,0.1c2.1,0.3,3.6,2.2,3.6,4.4C22.3,69.2,20.5,71.2,18,71.2z"/>
				<path class="st1" d="M149.4,59.8c-0.8-0.1-1.5-0.1-2.2,0c-3.2,0.5-5.5,3.2-5.5,6.6c0,4.1,2.8,7,6.7,7c3.8,0,6.7-3,6.7-7
					C155.1,63.1,152.7,60.3,149.4,59.8z M148.4,71.2c-2.6,0-4.4-1.9-4.4-4.7c0-2.4,1.3-4.1,3.5-4.4c0.2,0,0.5-0.1,0.8-0.1
					c0.3,0,0.5,0,0.8,0.1c2.1,0.3,3.6,2.2,3.6,4.4C152.7,69.2,151,71.2,148.4,71.2z"/>
				<path class="st1" d="M37.2,59.9h-1.8v7.5c0,2.6-1.6,3.7-3.4,3.7c-1.8,0-3.4-1.2-3.4-3.7l0-7.5h-1.8c-0.3,0-0.5,0.2-0.5,0.5v7
					c0,4,2.7,6,5.8,6c3.1,0,5.8-2.1,5.8-6l0-7C37.7,60.1,37.5,59.9,37.2,59.9z"/>
				<path class="st1" d="M76.9,60.4v13h1.8c0.3,0,0.5-0.2,0.5-0.5v-13h-1.8C77.1,59.9,76.9,60.1,76.9,60.4z"/>
				<path class="st1" d="M139.6,59.9h-1.8l0,12.2c0,1.5-1.4,2.8-3.1,2.8h-1.2v1.7c0,0.3,0.2,0.5,0.5,0.5c0,0,0.7,0,0.7,0
					c1.5,0,3-0.6,4.1-1.7c1-1,1.4-2.1,1.4-3.3l0-11.6C140.1,60.1,139.8,59.9,139.6,59.9z"/>
				<path class="st1" d="M105.2,59.9h-9.6c-0.3,0-0.5,0.2-0.5,0.5v12.4c0,0.3,0.2,0.5,0.5,0.5h9.6c0.3,0,0.5-0.2,0.5-0.5v-1.7h-8.3
					v-3.4h6.8c0.3,0,0.5-0.2,0.5-0.5v-1.7h-7.3v-3.3h8.3v-1.7C105.7,60.1,105.4,59.9,105.2,59.9z"/>
				<path class="st1" d="M59.7,62.1h5v-1.7c0-0.1-0.1-0.3-0.2-0.4c-0.1-0.1-0.2-0.2-0.4-0.2l0,0H52.9l0,0c-0.2,0-0.3,0.1-0.4,0.2
					c-0.1,0.1-0.1,0.2-0.1,0.3v1.7h5l0,11.2h2.3L59.7,62.1z"/>
				<path class="st1" d="M166.2,59.9L166.2,59.9h-11.3h0c-0.3,0-0.5,0.2-0.5,0.5v1.7h0h5l0,11.2h2.3l0-11.2h5h0v-1.7
					C166.7,60.1,166.5,59.9,166.2,59.9z"/>
				<path class="st1" d="M51,59.9h-1.9l0,9.2l-7.6-9.2h-1.4c-0.3,0-0.5,0.2-0.5,0.5v12.4c0,0.3,0.2,0.5,0.5,0.5h1.9v-9l7.4,9H51
					c0.3,0,0.5-0.2,0.5-0.5V60.4C51.5,60.1,51.3,59.9,51,59.9z"/>
				<path class="st1" d="M92.6,59.9h-1.9l0,9.2l-7.6-9.2h-1.4c-0.3,0-0.5,0.2-0.5,0.5v12.4c0,0.3,0.2,0.5,0.5,0.5h1.9l0-9l7.4,9h1.5
					c0.3,0,0.5-0.2,0.5-0.5V60.4C93.1,60.1,92.8,59.9,92.6,59.9z"/>
				<path class="st1" d="M69.9,60.1c-0.1-0.2-0.3-0.3-0.5-0.3h-0.9c-0.2,0-0.4,0.1-0.5,0.3l-6.4,12.5c0,0.1-0.1,0.2-0.1,0.2
					c0,0.3,0.2,0.5,0.5,0.5h1.7l1.6-3.2h7l1.6,3.2h1.7c0.3,0,0.5-0.2,0.5-0.5c0-0.1,0-0.2-0.1-0.2L69.9,60.1z M66.5,68.1l2.5-4.9
					l2.5,4.9H66.5z"/>
				<path class="st1" d="M132.4,70.1l1.6,3.2h1.7c0.3,0,0.5-0.2,0.5-0.5c0-0.1,0-0.2-0.1-0.2l-6.4-12.5c-0.1-0.2-0.3-0.3-0.5-0.3
					h-0.9c-0.2,0-0.4,0.1-0.5,0.3l-6.4,12.5c0,0.1-0.1,0.2-0.1,0.2c0,0.3,0.2,0.5,0.5,0.5h1.7l1.6-3.2H132.4z M128.9,63.3l2.5,4.9
					h-4.9L128.9,63.3z"/>
				<path class="st1" d="M123.1,64.7c0-2.9-2.1-4.8-5.4-4.8h-4.9c-0.3,0-0.5,0.2-0.5,0.5v13h1.8c0.3,0,0.5-0.2,0.5-0.5v-0.6v-2.8
					h3.1C121.1,69.5,123.1,67.5,123.1,64.7z M117.8,67.2h-3.1v-5.1h3.1c2,0,3.1,1,3.1,2.6C120.8,66.2,119.7,67.2,117.8,67.2z"/>
			</g>
			<path class="st1" d="M11.3,61.6c0,0.3-0.2,0.5-0.5,0.5l-7.5,0v3.3h6.4v1.7c0,0.3-0.2,0.5-0.5,0.5H3.3l0,5.2
				c0,0.3-0.2,0.5-0.5,0.5l-1.8,0v-13c0-0.3,0.2-0.5,0.5-0.5h9.8V61.6z"/>
		</g>
		<g>
			<path class="st1" d="M165.6,71.8c0.1,0,0.2,0.1,0.2,0.2c0,0.1-0.1,0.2-0.2,0.2h-0.3v-0.4H165.6z M165.2,71.6v1h0.2v-0.3h0.3
				l0.2,0.3h0.2v0l-0.2-0.3c0.1-0.1,0.2-0.2,0.2-0.3c0-0.2-0.2-0.4-0.4-0.4H165.2z M166.5,72.1c0,0.6-0.4,1-0.9,1
				c-0.6,0-0.9-0.4-0.9-1c0-0.6,0.4-1,0.9-1C166.1,71.2,166.5,71.6,166.5,72.1 M166.7,72.1c0-0.7-0.4-1.2-1.2-1.2
				c-0.7,0-1.2,0.5-1.2,1.2c0,0.6,0.4,1.2,1.2,1.2C166.3,73.3,166.7,72.8,166.7,72.1"/>
		</g>
	</g>
</g>
</svg>
