<?xml version="1.0" encoding="utf-8"?>
<!-- Generator: Adobe Illustrator 18.0.0, SVG Export Plug-In . SVG Version: 6.00 Build 0)  -->
<!DOCTYPE svg PUBLIC "-//W3C//DTD SVG 1.1//EN" "http://www.w3.org/Graphics/SVG/1.1/DTD/svg11.dtd">
<svg version="1.1" id="Layer_1" xmlns="http://www.w3.org/2000/svg" xmlns:xlink="http://www.w3.org/1999/xlink" x="0px" y="0px"
	 width="152px" height="45px" viewBox="0 0 152 45" enable-background="new 0 0 152 45" xml:space="preserve">
<g>
	<path fill="#002B5C" d="M79.3,23.4l-3.8,0l1.9-1.8L79.3,23.4z M77.4,19.6l-6.9,6.5l2.1,0l1.7-1.6l6.3,0l1.7,1.6l2.1,0L77.4,19.6z"
		/>
	<path fill="#002B5C" d="M135,23.6l-3.8,0l1.9-1.8L135,23.6z M133.1,19.8l-6.9,6.5l2.1,0l1.7-1.6l6.3,0l1.7,1.6l2.1,0L133.1,19.8z"
		/>
	<g>
		<path fill="#002B5C" d="M54.9,17.5l0,6.6l0,0c-0.1,0.7-0.7,0.8-1,0.8l-4.4,0c0,0-0.4,0-0.5-0.2c-0.1-0.1-0.1-0.2-0.1-0.3l0-0.5
			l-2,0l0,1.1c0,0,0,0.8,0.7,0.9c0.2,0,6.8,0,6.8,0c0.9,0,1.5-0.3,1.9-0.7c0.4-0.5,0.4-1.2,0.4-1.2l0-6.5L54.9,17.5z"/>
	</g>
	<polygon fill="#002B5C" points="68.9,21 68.9,19.9 60.1,19.8 60.1,26 61.9,26 68.8,26.1 68.8,24.9 61.9,24.9 61.9,23.3 68.8,23.3 
		68.9,22.1 61.9,22.1 61.9,21 	"/>
	<g>
		<path fill="#002B5C" d="M146.6,25.3c0.7,0,1.3-0.1,1.7-0.2c0.2-0.1,0.9-0.3,0.9-0.8l0-4.1l1.8,0l0,4.4c0,1-1.2,1.3-1.6,1.4
			c-0.8,0.2-1.8,0.4-3.1,0.4c-1.2,0-2.3-0.1-3.1-0.4c-0.4-0.1-1.5-0.5-1.5-1.4l0-4.4l1.8,0l0,4.1c0,0.6,0.7,0.8,0.9,0.8
			c0.5,0.1,1.1,0.2,1.7,0.2L146.6,25.3z"/>
	</g>
	<polygon fill="#002B5C" points="124.4,21.2 124.4,20.1 115.7,20.1 115.7,26.2 117.4,26.3 124.4,26.3 124.4,25.1 117.4,25.1 
		117.5,23.5 124.4,23.5 124.4,22.4 117.5,22.3 117.5,21.2 	"/>
	<polygon fill="#002B5C" points="95.6,20 95.6,24.3 85.7,19.7 85.7,26.1 87.5,26.1 87.5,21.9 97.4,26.4 97.4,20 	"/>
	<polygon fill="#002B5C" points="110.3,20 110.3,24.4 100.4,19.7 100.4,26.2 102.2,26.2 102.2,21.9 112,26.5 112.1,20 	"/>
	<polygon fill="#ED3424" points="29.8,25.9 43.4,22.6 29.9,19.1 34.3,10.5 25.6,14.9 22.3,1.3 18.8,14.8 10.1,10.4 14.6,19.1 
		1,22.4 14.5,25.9 10.1,34.5 18.8,30.1 22.1,43.7 25.6,30.2 34.2,34.6 	"/>
	<path fill="#FFFFFF" d="M22.2,25.2l0-2.7L22.2,25.2z"/>
	<polygon fill="#FFFFFF" points="22.2,22.5 22.2,17.1 22.2,17.1 	"/>
	<polygon fill="#FFFFFF" points="22.1,42.6 18.3,26.3 22.2,22.5 	"/>
	<polygon fill="#FFFFFF" points="26,26.4 22.2,22.5 42.3,22.6 	"/>
	<polygon fill="#FFFFFF" points="22.2,22.5 2.1,22.4 18.4,18.6 	"/>
	<polygon fill="#FFFFFF" points="22.2,22.5 22.3,2.4 26.1,18.7 	"/>
	<polygon fill="#FFFFFF" points="18.7,15.5 10.8,11 18,18.2 	"/>
	<polygon fill="#FFFFFF" points="21,23.7 21,23.7 22.2,22.5 	"/>
	<polygon fill="#FFFFFF" points="15.2,26 10.8,33.8 17.9,26.7 	"/>
	<polygon fill="#FFFFFF" points="26.4,26.8 25.7,29.5 33.5,33.9 	"/>
	<polygon fill="#FFFFFF" points="29.2,19 33.6,11.2 26.5,18.3 	"/>
</g>
</svg>
