<?xml version="1.0" encoding="utf-8"?>
<!-- Generator: Adobe Illustrator 18.0.0, SVG Export Plug-In . SVG Version: 6.00 Build 0)  -->
<!DOCTYPE svg PUBLIC "-//W3C//DTD SVG 1.1//EN" "http://www.w3.org/Graphics/SVG/1.1/DTD/svg11.dtd">
<svg version="1.1" id="Layer_2" xmlns="http://www.w3.org/2000/svg" xmlns:xlink="http://www.w3.org/1999/xlink" x="0px" y="0px"
	 width="152px" height="37px" viewBox="0 0 152 37" enable-background="new 0 0 152 37" xml:space="preserve">
<g>
	<polygon fill="#8B9999" points="30,29.9 30,30.3 31.3,30.3 31.3,35.1 31.8,35.1 31.8,30.3 33.1,30.3 33.1,29.9 	"/>
	<path fill="#8B9999" d="M46.2,30.9l0.9,2.2h-1.8L46.2,30.9z M43.9,35.1h0.6l0.6-1.5h2.2l0.6,1.5h0.6l-2.3-5.4L43.9,35.1z"/>
	<g>
		<path fill="#8B9999" d="M114,27.3C114,27.3,114,27.3,114,27.3l28.4,0V27h-28.1L114,27.3z"/>
	</g>
	<polygon fill="#8B9999" points="61.5,34.1 59.6,29.6 58.7,35.1 59.2,35.1 59.8,31.2 61.5,35.3 63.1,31.2 63.7,35.1 64.2,35.1 
		63.3,29.6 	"/>
	<g>
		<path fill="#8B9999" d="M1,32.5c0,1.5,1.2,2.7,2.7,2.7c0.5,0,0.9-0.1,1.3-0.3l-0.1-0.6c-0.4,0.3-0.8,0.4-1.2,0.4
			c-1.2,0-2.2-1-2.2-2.2c0-1.2,1-2.2,2.2-2.2c0.5,0,1,0.2,1.3,0.4v-0.6c-0.4-0.2-0.8-0.3-1.3-0.3C2.2,29.8,1,31,1,32.5"/>
		<path fill="#8B9999" d="M110,27H99.9h-1.6l-0.1,0.3h11.7C109.9,27.2,110,27.1,110,27C110,27,110,27,110,27"/>
	</g>
	<path fill="#8B9999" d="M17,30.9l0.9,2.2h-1.8L17,30.9z M14.7,35.1h0.6l0.6-1.5h2.2l0.6,1.5h0.6L17,29.7L14.7,35.1z"/>
	<polygon fill="#8B9999" points="1.4,27 1.4,27.3 93.8,27.3 94.3,27.3 94.4,27 	"/>
	<g>
		<path fill="#8B9999" d="M89.4,32.2v-1.8h0.5c0.7,0,1,0.4,1,0.9c0,0.2-0.1,0.5-0.2,0.6c-0.1,0.2-0.3,0.3-0.7,0.3H89.4z M91.4,31.3
			c0-1-0.9-1.4-1.5-1.4h-1.1v5.2h0.5v-2.5h0.2l1.5,2.5h0.6l-1.5-2.5C90.9,32.6,91.4,32,91.4,31.3"/>
		<path fill="#8B9999" d="M137.4,32.2c-0.2-0.1-0.5-0.2-0.7-0.4c-0.3-0.2-0.4-0.5-0.4-0.7c0-0.4,0.4-0.8,0.8-0.8
			c0.3,0,0.7,0.2,0.9,0.7l0.5-0.3c-0.3-0.6-0.7-0.9-1.2-0.9c-0.8,0-1.4,0.6-1.4,1.3c0,0.3,0.1,0.7,0.4,0.9c0.1,0.2,0.3,0.3,0.9,0.6
			c0.3,0.1,0.6,0.3,0.8,0.5c0.1,0.2,0.2,0.4,0.2,0.6c0,0.5-0.4,0.9-0.9,0.9c-0.3,0-0.5-0.1-0.7-0.3c-0.1-0.1-0.2-0.4-0.3-0.5
			l-0.5,0.3c0.3,0.7,0.8,1.1,1.4,1.1c0.9,0,1.5-0.6,1.5-1.5C138.5,33.2,138.3,32.6,137.4,32.2"/>
	</g>
	<path fill="#8B9999" d="M104,30.9l0.9,2.2h-1.8L104,30.9z M101.7,35.1h0.6l0.6-1.5h2.2l0.6,1.5h0.6l-2.3-5.4L101.7,35.1z"/>
	<polygon fill="#8B9999" points="116.8,35.1 117.3,35.1 117.2,30.9 121.2,35.3 121.2,29.9 120.6,29.9 120.6,34 116.8,29.6 	"/>
	<path fill="#8B9999" d="M76.3,30.9l0.9,2.2h-1.8L76.3,30.9z M74,35.1h0.6l0.6-1.5h2.2l0.6,1.5h0.6l-2.3-5.4L74,35.1z"/>
	<g>
		<path fill="#345274" d="M110.9,19.8l-1.1,0.7l-0.9,0.9c-1.3,1.3-4.6,0.3-0.7-3.2c1.4-1.3,2.4-2,3.1-2h1.1c0,0,0.2,0.2,0.4,0.5
			C113.4,17.8,112.7,18.8,110.9,19.8 M114.6,17.8h-0.3c0.1-0.8,0.4-1.5,0.6-2.3c-0.1-0.1-0.2-0.2-0.3-0.3c-0.1-0.1-0.2-0.2-0.3-0.3
			c-1.5-1.5-7.2,1.4-9.1,5.2c-1.6,3.4,0.9,3.6,4,2.1c1.5-0.7,2.3-1.1,2.4-1.1h0.3v0.6h0.6v0.5h0.2c1.1,0,1.8-0.4,2.1-1.1
			c0-0.1-0.1-0.2-0.3-0.5c-0.5-0.7-0.3-1.2,0.5-1.8l1-0.6c1.8-1.1,2.4-1.9,1.7-2.4c-0.8,0-1.6,0.3-2.3,1L114.6,17.8z"/>
		<path fill="#345274" d="M74.4,13.9c1.3,0.3,3.1-3.5,2.4-4.1c-0.4-0.3-0.7-0.2-0.9,0.1l-0.5,0.6c-0.4,0.4-0.8,0.5-1.3,0.4
			c-1-0.4-1.1,1.2-1,1.5C73.4,13.3,73.8,13.8,74.4,13.9"/>
		<path fill="#345274" d="M151,15.9c-1.1-1.5-4.9-1.4-11.4,0.4l-1.2,0.3c-0.2-0.3,0.8-1.1,3-2.6c2.3-1.5,3.1-2.7,2.4-3.6
			c-0.8-1-2.8,0.7-5.9,4.9c-2.2,3-3.8,4.7-6.2,5.6c-0.7,0.3-1.1,0.4-1.1,0.4c-0.3,0.3-0.4,0.6-0.5,1c0.5,0.7,3,0.5,4.1-0.3
			c0.1-0.1,0.4-0.4,0.9-0.8c1.9-2,3.9-3.2,6-3.8c2.5-0.7,5.8-0.9,9.7-0.5C151,16.5,151.1,16.2,151,15.9"/>
		<path fill="#345274" d="M126.9,18.5l1.2-0.6c1.8-1,3-1.3,3.6-0.8v0.7c0,0.3-0.5,1-1.4,1.9c-1.5,1.5-4.7,2.6-5.6,2.5
			c-0.3-0.5-0.4-1-0.4-1.3c0-1.5,1.2-2.1,1.3-2.1L126.9,18.5z M123.1,21.8c0.4,0.5,1.1,0.8,2,0.9c2.1,0.3,4.4-0.8,6.7-3.2
			c1.7-1.7,1.9-3,0.8-3.8c-0.6-0.5-2.1-0.4-4.5,0.2C124.6,16.9,122.9,20.3,123.1,21.8"/>
		<path fill="#345274" d="M129.6,11.1h0.5c0.5,0,2.9-3.6,1.7-4.2c-0.2-0.1-0.7,0.2-1.3,0.8c-0.5,0.4-0.8,0.5-1.1,0.3
			c-0.8-0.7-1.2,0.9-0.9,1.7C128.6,10.4,129.4,11.1,129.6,11.1"/>
		<path fill="#345274" d="M111.2,12.1c0-0.4,0.3-0.9,0.9-1.7c0.3-0.4,0.8-0.8,1.4-1.4l0.8-0.6l0.7-0.7c0.2-0.1,0.4,0.1,0.8,0.7
			l0.2,0.4c0,0.1-0.1,0.5-0.4,1.3l-0.4,1c-0.3,0.7-2.8,1.2-3,1.2h-0.8h-0.1V12.1z M106.7,15.9c1.1-1.2,2.5-2.1,4.1-2.4
			c0,0,0.4-0.1,1.2-0.2c4.4-0.9,6.2-3.1,5.2-6.8c-0.4-1.4-0.9-2.5-1.7-3.3c-0.9-0.9-1.5-1.4-2-1.4h-1.3h-1.3c-0.3,0-4.8,2.5-3.1,4
			c0.1,0.1,0.4,0.2,0.6,0.1c0.1,0,0.7-0.6,1.9-1.7l0.9-0.9c0.1-0.1,2.3-0.2,2.6-0.1c1.1,0.4,1.6,1.3,1.5,2.7
			c-0.3,0.3-0.6,0.6-0.9,0.8c-0.8,0.7-1.7,1.5-2.8,2.6c-1.5,1.4-2.5,2.1-3.1,2.2c-0.1,0-0.4-0.1-1.1-0.2c-1.5-0.3-2.4-0.3-2.7,0.2
			c-0.4,0.5-0.3,1,0.2,1.3l1,0.7c0.2,0.1,0.4,0.4,0.5,0.9c-1.2,1.1-2.2,2.4-3.2,3.8l-0.7,1c0,0-0.7,0.5-2,1.5
			c-1,0.7-1.6,1.2-1.8,1.6c-0.1,0.1-0.2,0.5-0.5,1.2l-0.4,1.1c-0.1,0.3-0.4,0.6-0.9,0.8l-0.9,0.8c-0.2,0.2-0.4,0.5-0.5,1.1
			c0,0.1-0.1,0.2-0.1,0.3c0,1,1.6,0.8,1.9-0.1l0.3-0.3c0.5-0.6,1-1.3,1.5-1.9C100.6,22.7,103.3,19.7,106.7,15.9"/>
		<path fill="#345274" d="M114.5,26.9c1.1-1.5,4.7-5.2,10.9-11.1c0.5-0.5,0.8-0.8,0.8-0.9c0.2-0.3,0.3-0.7,0.3-1.2
			c-0.8-0.2-1.6,0-2.4,0.5c-0.3,0.2-1.8,1.5-4.4,3.9c-0.8,0.7-1.4,1.2-1.9,1.5l-1,0.5c-0.2,0.1-0.5,0.3-1,0.6
			c-0.1,0.4,0.2,0.7,0.9,1c0,0.1-3.7,4.7-4.5,4.7H112c0-0.1-0.1-0.1-0.2-0.1c0-0.3,0.2-0.6,0.3-0.9l0.2-0.4l0.1-0.7
			c-0.1-0.2-1.7,0.2-2.4,2.7h4.3L114.5,26.9z"/>
		<path fill="#345274" d="M16.1,18.7c1.3-0.8,1.9-1.2,2-1.2l0.9-0.7h1.2c0.6,0,1.4,1.3,1.2,1.6L21,18.7c-0.1,0.1-0.1,0.3-0.2,0.5
			l-0.1,0.5c-0.1,0.5-5.7,3-6.3,2.8c-0.3-0.1-0.9-1.2-0.9-1.5C13.6,20.6,14.5,19.8,16.1,18.7 M6.3,20.9l0.7-1
			c1.3-1.9,2.5-3.1,3.5-3.5c1.5-0.6,2.8-0.5,4.2,0.2c0,0.5-0.4,1.3-1.4,2.5c-4.7,5.5,2.1,4.8,3.7,4.3c3.4-1.2,5.4-3.9,5.6-4.6
			c0.4-1.3,0-2.2-1-2.8c-0.5-0.3-2.5-0.3-6.1-0.2c-1.9,0.1-3.2-0.1-3.7-0.5c0.4-0.8,1-1.5,1.7-2.2c0.6-0.6,1-0.9,1.1-0.9l1.4-0.1
			c0.9-0.1,2.9-4.2,2.4-4.7c-2.1,0.7-4.2,2.6-6.2,5.8c-0.4,0.6-0.6,0.9-0.7,1c-0.7,0.7-1.8,1-3.4,0.8c-1.7-0.2-2.7-0.3-3-0.3
			c-1.5,0.1-2.8,0.6-4,1.6v0.7c0.4,0.1,0.7,0.3,0.7,0.4c0.9,0.1,1.9,0,2.8-0.4L6,16.7c0.3-0.1,0.8-0.2,1.4-0.2c1,1-4.3,5-6.3,6.1
			v1.4C3.1,24,4.9,23,6.3,20.9"/>
		<path fill="#345274" d="M109.9,27.4c0,0.1-0.2,0.5-0.7,1.3c-1.3,2.1-1.6,3.2-0.9,3.2c0.9,0.1,2-0.5,3.3-1.8c1.1-1.1,1.9-2,2.5-2.9
			L109.9,27.4C109.9,27.3,109.9,27.3,109.9,27.4"/>
		<path fill="#345274" d="M58.2,17.6c1.3-0.7,2.1-1.1,2.4-1.1c1.8-0.3,2.5,2,0.8,2.5l-1.2,0.4c-0.3,0.1-0.7,0.2-1.2,0.4l-0.7,1
			c-0.3,0.4-0.6,0.6-0.9,0.8c-1.7,0.7-2.1-1.1-2-1.4C55.4,19.4,56.4,18.5,58.2,17.6 M90.5,16.2c0.6-0.4,1.3-0.6,2.3-0.6
			c0.4,0,0.5,0,0.6,0.1c0.2,0.6-0.1,1.3-0.9,2.1c-0.3,0.3-0.9,0.6-1.8,1l-1,0.4l-0.9,0.4c-0.2,0.1-0.4,0-0.6-0.3
			C87.8,18.7,90.3,16.4,90.5,16.2 M32.1,19.4l1-0.9c0.9-0.7,1.3-1.5,1.5-2.3c-1.3,0-3.1,0.9-5.4,2.6c-2.3,1.6-4.2,2.5-5.5,2.5
			c-0.1-0.1-0.1-0.1-0.2-0.1c0.4-0.5,0.7-0.8,1-1l1.2-0.7c1-0.6,1.7-1.2,2.2-1.7c0-0.2,0-0.5-0.1-0.8c-0.2-0.1-0.4-0.2-0.5-0.1
			l-1,0.7c-0.1,0.1-0.5,0.3-1,0.7c-3.7,2.3-4.8,4-3.2,4.9c0.5,0.3,1.7,0,3.7-0.9c1.8-0.8,3-1.3,3.5-1.4l-0.1,0.4l-0.1,0.4L29,22
			c-0.1,0.4,0.1,0.6,0.8,0.8c0.8,0.2,5.6-2.3,6.8-3.4l0.9-0.8h0.2c0,0.5,0,0.9-0.2,1.1L37,20.5c-0.5,0.8-0.6,1.4-0.2,1.9
			c0.9-0.2,2.5-0.9,4.6-2.3c1.1-0.7,2-1.1,2.6-1c0,0,0,0.1,0.1,0.1c0,0.1-0.2,0.8-0.7,1.9c-0.2,0.6-0.3,1-0.1,1.2
			c0.3,0.2,0.4,0.4,0.4,0.5l3.5-0.8c0.8,0.7,2.5,0.6,5.1-0.2c0.9-0.3,1.4-0.4,1.5-0.3l0.7,0.4c1.5,1,3.4,0.8,5.7-0.8
			c1.9,1.2,5.3,1.2,6.3,0.6l0.6-0.3l0.3,0c0.9,1.6,2.8,1.4,5.9-0.8c1.6-1.1,2.4-1.5,2.6-1.3c0.1,0.2-0.1,0.5-0.4,1L75,21
			c-0.1,0.2-0.2,0.4-0.2,0.8c0.4,0.7,1.3,0.7,2.8,0.1c0.4-0.2,1.5-0.9,3.2-2.3c0.6-0.5,1-0.8,1-0.8h0.1l0.1,0.1c0,0,0.1,0.1,0.1,0.1
			c0,0,0.1,0,0.1,0.1c0,0.4-0.2,1-0.4,1.7c-0.2,0.6-0.3,1-0.3,1.2c0.4,0.6,1.5,0.6,3.1,0.1c1.6-0.5,2.6-0.6,2.9-0.2l0.2,0.2l1.3,0.1
			c0.5,0,1,0,1.3,0.1c2.7,0.2,4.4-0.4,5.4-1.6c0.1-0.2-0.4-0.2-1.4,0c-3.6,0.8-5.6,0.9-6.2,0.4c-0.1-0.7,0-1.1,0.3-1.2
			c0.4-0.2,0.8-0.3,1.2-0.5c1.8-0.6,3-1.2,3.5-1.8c1.4-1.6,1.8-4.5-2.7-2.2c-1.3,0.7-2.2,1.4-2.8,2.4l-0.7,1
			c-0.4,0.5-1.3,1.3-2.8,2.2c-0.4-0.2-0.7-0.3-0.9-0.3c0.2-0.6,1-1.6,2.2-2.9c1.2-1.3,1.5-2.1,1.1-2.6c0,0-0.1-0.1-0.1-0.1
			c-0.8,0.2-2.7,1.3-5.4,3.4c-2.1,1.7-3.4,2.3-3.8,1.7c1.6-2.1,2.3-3.4,2-3.8c-0.7-1-4,0.9-4.5,1.3c-0.2,0.2-0.5,0.4-1,0.9
			c-2.3,2.3-3.9,3-4.8,2.1c1.2-1.3,1.8-1.9,1.9-2l1-1c0.2-0.2-0.2-1.3-0.8-0.8l-1.1,0.8c-3,2.3-5.3,3.4-7,3.4c0,0,0-0.1-0.1-0.1
			c0.3-0.5,0.6-0.8,0.8-1l1.1-0.6c0.9-0.5,1.6-1,2-1.6c0-0.1-0.1-0.2-0.2-0.4c-0.1-0.1-0.2-0.2-0.3-0.4c-0.6,0-1.3,0.3-2,0.9
			l-0.9,0.7c0,0-0.1,0-0.2,0c0.8-2.3,0.3-2.7-0.7-3.1c-1.7-0.5-4,0.4-6.9,2.8c-2.2,1.9-4,2.9-5.3,3c0-0.1-0.1-0.1-0.1-0.1
			c-0.2-0.2-0.3-0.4-0.2-0.6c0-0.1,3-2.9,4.5-4c2.2-1.6,4.8-3,9.1-2.5c2.3,0.3,3.7,0.1,4.3-0.5v-0.2c-0.6-0.6-1.1-0.9-1.6-0.9
			l-4.9,0L60.1,13c-2.4,0.9-3.8,1.4-4.2,1.4c0,0,0-0.1-0.1-0.1c0.3-0.7,1.2-1.7,2.6-3.1c2.1-2.1,2.8-3.4,2-3.8
			c-0.5-0.3-2.8,2.1-6.9,7c-2.9,3.4-5.4,5.4-7.4,6c-0.1-0.8,0.3-1.6,1-2.3l1-0.9c0.2-0.2,0.5-0.5,0.8-1c-0.1-0.4-0.2-0.7-0.2-0.8
			c-1.3,0-3.4,1.1-6.2,3.2c-1.4,1.1-2.4,1.6-3.1,1.7c0.2-0.4,0.4-0.8,0.6-1.1c0.9-1.6,1.2-2.5,0.9-2.8c-0.5-0.4-1.3-0.3-2.6,0.4
			c-0.2,0.1-0.6,0.3-1.1,0.7c-3.2,1.9-5.1,2.9-5.8,3C31.6,20,31.9,19.6,32.1,19.4"/>
		<path fill="#345274" d="M9.8,6.8l0.5-1C10.6,5,20.1,4.1,28,5.1c3.1,0.4,5,1,5.7,1.7l0.8,0.8h0.9c0.3,0,0.7-1.1,0.6-1.5
			C36,5.8,34,4.4,32,3.8C26.8,2.4,12.1,3,9.6,3.8c-1.3,0.5-2,1.3-2.2,2.6C8.5,7.7,9.3,7.8,9.8,6.8"/>
		<path fill="#345274" d="M114.3,27H110c0,0,0,0,0,0c0,0.1-0.1,0.2-0.1,0.3h4.1c0,0,0,0,0,0L114.3,27z"/>
	</g>
</g>
</svg>
