<?xml version="1.0" encoding="utf-8"?>
<!-- Generator: Adobe Illustrator 19.2.0, SVG Export Plug-In . SVG Version: 6.00 Build 0)  -->
<svg version="1.1" id="Layer_3" xmlns="http://www.w3.org/2000/svg" xmlns:xlink="http://www.w3.org/1999/xlink" x="0px" y="0px"
	 width="152px" height="37px" viewBox="0 0 152 37" style="enable-background:new 0 0 152 37;" xml:space="preserve">
<style type="text/css">
	.st0{fill:#002537;}
	.st1{fill:#FFFFFF;}
	.st2{fill:#F05349;}
	.st3{fill:#667C87;}
</style>
<path class="st0" d="M56.8,1v11.1c0,1.7-0.5,2.9-1.7,4c-1.3,1.2-3.4,1.8-3.5,1.8l-5.6,1.5V8.3c0-1.7,0.5-2.9,1.7-4
	c1.3-1.2,3.4-1.8,3.5-1.8L56.8,1 M57.3,0.4L57.3,0.4L51.1,2c0,0-2.3,0.6-3.7,1.9c-1.1,1-1.8,2.3-1.8,4.3c0,0,0,11.7,0,11.7l6.2-1.7
	c0,0,2.3-0.6,3.7-1.9c1.1-1,1.8-2.3,1.8-4.3C57.3,12.1,57.3,0.4,57.3,0.4L57.3,0.4z"/>
<g>
	<g>
		<rect x="49.5" y="35.2" class="st1" width="3.9" height="1.4"/>
		<path class="st2" d="M56,36.6h-2.6v-1.4h3.9v0.1C57.3,36,56.7,36.6,56,36.6z"/>
		<path class="st3" d="M49.5,36.6h-3.9v-0.1c0-0.7,0.6-1.3,1.3-1.3h2.6V36.6z"/>
	</g>
</g>
<path class="st0" d="M55,9.5c0,0.3,0,0.7-0.2,1c-0.3,0.4-0.7,0.8-1.4,1l-2,0.5v2.9c0,0.3-0.3,0.4-0.3,0.4l-0.9,0.2v-3.9
	c0-0.1,0.1-0.6,0.7-0.8c0,0,2.2-0.6,2.2-0.6c0.4-0.1,0.8-0.3,0.8-0.7l0-0.7L49,10.2v3.2c0,0.3-0.3,0.4-0.3,0.4L47.8,14V8.9
	c0-0.9,0.3-1.5,0.8-1.9c0.6-0.6,1.6-0.8,1.6-0.8L55,4.9v0.9c0,0.3-0.3,0.4-0.3,0.4l-4.3,1.2C49.2,7.8,49,8.5,49,8.9v0.1l6-1.6
	C55,7.3,55,9.4,55,9.5z"/>
<g>
	<path class="st0" d="M11.9,23.8c-0.5-0.1-0.9-0.1-1.3,0c-2,0.3-3.4,2-3.4,4c0,2.5,1.7,4.3,4.1,4.3c2.3,0,4.1-1.8,4.1-4.3
		C15.3,25.8,13.9,24.1,11.9,23.8z M11.3,30.7c-1.6,0-2.7-1.2-2.7-2.9c0-1.5,0.8-2.5,2.1-2.7c0.2,0,0.3,0,0.5,0c0.2,0,0.3,0,0.5,0
		c1.3,0.2,2.2,1.3,2.2,2.7C13.9,29.6,12.8,30.7,11.3,30.7z"/>
	<path class="st0" d="M91.4,23.8c-0.5-0.1-0.9-0.1-1.3,0c-2,0.3-3.4,2-3.4,4c0,2.5,1.7,4.3,4.1,4.3c2.3,0,4.1-1.8,4.1-4.3
		C94.8,25.8,93.4,24.1,91.4,23.8z M90.8,30.7c-1.6,0-2.7-1.2-2.7-2.9c0-1.5,0.8-2.5,2.1-2.7c0.2,0,0.3,0,0.5,0c0.2,0,0.3,0,0.5,0
		c1.3,0.2,2.2,1.3,2.2,2.7C93.4,29.6,92.3,30.7,90.8,30.7z"/>
	<path class="st0" d="M23,23.8h-1.1v4.6c0,1.6-1,2.3-2.1,2.3s-2.1-0.7-2.1-2.3l0-4.6h-1.1c-0.2,0-0.3,0.1-0.3,0.3v4.3
		c0,2.4,1.6,3.7,3.5,3.7c1.9,0,3.5-1.3,3.5-3.7l0-4.3C23.3,24,23.2,23.8,23,23.8z"/>
	<path class="st0" d="M47.2,24.2v7.9h1.1c0.2,0,0.3-0.1,0.3-0.3v-7.9h-1.1C47.3,23.8,47.2,24,47.2,24.2z"/>
	<path class="st0" d="M85.4,23.8h-1.1l0,7.4c0,0.9-0.8,1.7-1.9,1.7h-0.7v1c0,0.2,0.1,0.3,0.3,0.3c0,0,0.4,0,0.4,0
		c0.9,0,1.9-0.4,2.5-1c0.6-0.6,0.8-1.3,0.8-2l0-7.1C85.7,24,85.5,23.8,85.4,23.8z"/>
	<path class="st0" d="M64.4,23.8h-5.8c-0.2,0-0.3,0.1-0.3,0.3v7.6c0,0.2,0.1,0.3,0.3,0.3h5.8c0.2,0,0.3-0.1,0.3-0.3v-1.1h-5.1v-2.1
		h4.1c0.2,0,0.3-0.1,0.3-0.3v-1.1h-4.4v-2h5.1v-1.1C64.7,24,64.6,23.8,64.4,23.8z"/>
	<path class="st0" d="M36.7,25.2h3.1v-1.1c0-0.1,0-0.2-0.1-0.2s-0.1-0.1-0.2-0.1l0,0h-6.9l0,0c-0.1,0-0.2,0.1-0.3,0.1
		c0,0-0.1,0.1-0.1,0.2v1.1h3l0,6.8h1.4L36.7,25.2z"/>
	<path class="st0" d="M101.6,23.8L101.6,23.8h-6.9h0c-0.2,0-0.3,0.1-0.3,0.3v1.1h0h3l0,6.8h1.4l0-6.8h3.1h0v-1.1
		C101.9,24,101.8,23.8,101.6,23.8z"/>
	<path class="st0" d="M31.4,23.8h-1.1l0,5.6l-4.6-5.6h-0.8c-0.2,0-0.3,0.1-0.3,0.3v7.6c0,0.2,0.1,0.3,0.3,0.3H26v-5.5l4.5,5.5h0.9
		c0.2,0,0.3-0.1,0.3-0.3v-7.6C31.7,24,31.6,23.8,31.4,23.8z"/>
	<path class="st0" d="M56.7,23.8h-1.1l0,5.6L51,23.8h-0.8c-0.2,0-0.3,0.1-0.3,0.3v7.6c0,0.2,0.1,0.3,0.3,0.3h1.1l0-5.5l4.5,5.5h0.9
		c0.2,0,0.3-0.1,0.3-0.3v-7.6C57,24,56.9,23.8,56.7,23.8z"/>
	<path class="st0" d="M42.9,24c-0.1-0.1-0.2-0.2-0.3-0.2h-0.6c-0.1,0-0.2,0.1-0.3,0.2l-3.9,7.6c0,0,0,0.1,0,0.1
		c0,0.2,0.1,0.3,0.3,0.3h1.1l1-2h4.2l1,2h1.1c0.2,0,0.3-0.1,0.3-0.3c0-0.1,0-0.1,0-0.1L42.9,24z M40.9,28.9l1.5-3l1.5,3H40.9z"/>
	<path class="st0" d="M81,30.1l1,2h1.1c0.2,0,0.3-0.1,0.3-0.3c0-0.1,0-0.1,0-0.1L79.4,24c-0.1-0.1-0.2-0.2-0.3-0.2h-0.6
		c-0.1,0-0.2,0.1-0.3,0.2l-3.9,7.6c0,0,0,0.1,0,0.1c0,0.2,0.1,0.3,0.3,0.3h1.1l1-2H81z M78.9,25.9l1.5,3h-3L78.9,25.9z"/>
	<path class="st0" d="M75.3,26.8c0-1.7-1.3-2.9-3.3-2.9h-3c-0.2,0-0.3,0.1-0.3,0.3v7.9h1.1c0.2,0,0.3-0.1,0.3-0.3v-0.4v-1.7h1.9
		C74.1,29.7,75.3,28.5,75.3,26.8z M72.1,28.3h-1.9v-3.1h1.9c1.2,0,1.9,0.6,1.9,1.6S73.3,28.3,72.1,28.3z"/>
	<path class="st0" d="M7.2,24.9c0,0.2-0.1,0.3-0.3,0.3l-4.6,0v2h3.9v1.1c0,0.2-0.1,0.3-0.3,0.3H2.3l0,3.1c0,0.2-0.1,0.3-0.3,0.3
		l-1.1,0v-7.9c0-0.2,0.1-0.3,0.3-0.3h6V24.9z"/>
	<g>
		<path class="st0" d="M101.3,31.1c0.1,0,0.1,0,0.1,0.1c0,0.1-0.1,0.1-0.1,0.1h-0.2v-0.2H101.3z M101,31v0.6h0.1v-0.2h0.2l0.1,0.2
			h0.1v0l-0.1-0.2c0.1,0,0.1-0.1,0.1-0.2c0-0.1-0.1-0.2-0.3-0.2H101z M101.8,31.3c0,0.3-0.2,0.6-0.6,0.6c-0.3,0-0.6-0.3-0.6-0.6
			c0-0.4,0.2-0.6,0.6-0.6C101.6,30.7,101.8,31,101.8,31.3 M101.9,31.3c0-0.4-0.3-0.7-0.7-0.7c-0.4,0-0.7,0.3-0.7,0.7
			c0,0.4,0.3,0.7,0.7,0.7C101.7,32.1,101.9,31.7,101.9,31.3"/>
	</g>
</g>
</svg>
