<?xml version="1.0" encoding="utf-8"?>
<!-- Generator: Adobe Illustrator 18.0.0, SVG Export Plug-In . SVG Version: 6.00 Build 0)  -->
<!DOCTYPE svg PUBLIC "-//W3C//DTD SVG 1.1//EN" "http://www.w3.org/Graphics/SVG/1.1/DTD/svg11.dtd">
<svg version="1.1" id="Layer_1" xmlns="http://www.w3.org/2000/svg" xmlns:xlink="http://www.w3.org/1999/xlink" x="0px" y="0px"
	 width="40px" height="550px" viewBox="0 0 40 550" enable-background="new 0 0 40 550" xml:space="preserve">
<g id="hamburger">
	<g>
		<path fill="#FFFFFF" d="M37.1,11.4H2.9c-1.6,0-2.9,1.3-2.9,2.9s1.3,2.9,2.9,2.9h34.3c1.6,0,2.9-1.3,2.9-2.9
			C40,12.7,38.7,11.4,37.1,11.4z M2.9,5.7h34.3c1.6,0,2.9-1.3,2.9-2.9C40,1.3,38.7,0,37.1,0H2.9C1.3,0,0,1.3,0,2.9
			C0,4.4,1.3,5.7,2.9,5.7z M37.1,22.9H2.9c-1.6,0-2.9,1.3-2.9,2.9s1.3,2.9,2.9,2.9h34.3c1.6,0,2.9-1.3,2.9-2.9
			C40,24.1,38.7,22.9,37.1,22.9z"/>
	</g>
</g>
<g id="facebook_2_">
	<g id="facebook">
		<g>
			<path fill="#345274" d="M40,84c0,3.3-2.7,6-6,6H6c-3.3,0-6-2.7-6-6V56c0-3.3,2.7-6,6-6h28c3.3,0,6,2.7,6,6V84z"/>
			<path fill="#FFFFFF" d="M22.9,87.1V72.4H19v-5.3h3.9v-4.5c0-3.6,2.3-6.8,7.6-6.8c2.1,0,3.7,0.2,3.7,0.2L34,61c0,0-1.6,0-3.4,0
				c-1.9,0-2.2,0.9-2.2,2.3v3.9h5.7L34,72.4h-5.5v14.7H22.9z"/>
		</g>
	</g>
</g>
<g id="linkedIn">
	<g>
		<g id="facebook_1_">
			<g>
				<path fill="#345274" d="M40,134c0,3.3-2.7,6-6,6H6c-3.3,0-6-2.7-6-6v-28c0-3.3,2.7-6,6-6h28c3.3,0,6,2.7,6,6V134z"/>
			</g>
		</g>
		<path fill="#FFFFFF" d="M12.5,134.5V115H6v19.5H12.5L12.5,134.5z M9.3,112.3c2.3,0,3.7-1.5,3.7-3.4s-1.4-3.4-3.6-3.4
			s-3.7,1.5-3.7,3.4S7.1,112.3,9.3,112.3L9.3,112.3L9.3,112.3z"/>
		<path fill="#FFFFFF" d="M16.1,134.5h6.5v-10.9c0-0.6,0-1.2,0.2-1.6c0.5-1.2,1.5-2.4,3.3-2.4c2.3,0,3.3,1.8,3.3,4.4v10.4h6.5v-11.2
			c0-6-3.2-8.8-7.5-8.8c-3.5,0-5,2-5.9,3.3l0,0V115H16C16.2,116.8,16.1,134.5,16.1,134.5L16.1,134.5z"/>
	</g>
</g>
<g id="youtube">
	<g>
		<g id="facebook_3_">
			<g>
				<path fill="#345274" d="M40,184c0,3.3-2.7,6-6,6H6c-3.3,0-6-2.7-6-6v-28c0-3.3,2.7-6,6-6h28c3.3,0,6,2.7,6,6V184z"/>
			</g>
		</g>
	</g>
	<g>
		<g>
			<path opacity="0.3" fill="#020000" enable-background="new    " d="M17.1,153.5h-1.9l-1.3,4.9l-1.3-4.9h-2
				c0.4,1.2,0.8,2.3,1.2,3.5c0.6,1.7,1,3.1,1.1,4v5.1h1.9V161L17.1,153.5z M22.1,163v-3.3c0-1-0.2-1.7-0.5-2.2c-0.5-0.6-1.1-1-2-1
				c-0.8,0-1.5,0.3-2,1c-0.4,0.5-0.5,1.2-0.5,2.2v3.3c0,1,0.2,1.7,0.5,2.2c0.5,0.6,1.1,1,2,1c0.8,0,1.5-0.3,2-1
				C21.9,164.7,22.1,164,22.1,163z M20.4,163.3c0,0.9-0.3,1.3-0.8,1.3s-0.8-0.4-0.8-1.3v-3.9c0-0.9,0.3-1.3,0.8-1.3s0.8,0.4,0.8,1.3
				V163.3z M28.3,166v-9.3h-1.7v7.1c-0.4,0.5-0.7,0.8-1.1,0.8c-0.2,0-0.4-0.1-0.4-0.4c0-0.1,0-0.3,0-0.7v-6.9h-1.7v7.4
				c0,0.7,0.1,1.1,0.1,1.4c0.2,0.5,0.5,0.7,1.1,0.7s1.3-0.4,1.9-1.1v1H28.3z"/>
			<path fill="#FFFFFF" d="M17.1,153.3h-1.9l-1.3,4.9l-1.3-4.9h-2c0.4,1.2,0.8,2.3,1.2,3.5c0.6,1.7,1,3.1,1.1,4v5.1h1.9v-5.1
				L17.1,153.3z M22.1,162.8v-3.3c0-1-0.2-1.7-0.5-2.2c-0.5-0.6-1.1-1-2-1c-0.8,0-1.5,0.3-2,1c-0.4,0.5-0.5,1.2-0.5,2.2v3.3
				c0,1,0.2,1.7,0.5,2.2c0.5,0.6,1.1,1,2,1c0.8,0,1.5-0.3,2-1C21.9,164.5,22.1,163.8,22.1,162.8z M20.4,163.1c0,0.9-0.3,1.3-0.8,1.3
				s-0.8-0.4-0.8-1.3v-3.9c0-0.9,0.3-1.3,0.8-1.3s0.8,0.4,0.8,1.3V163.1z M28.3,165.8v-9.3h-1.7v7.1c-0.4,0.5-0.7,0.8-1.1,0.8
				c-0.2,0-0.4-0.1-0.4-0.4c0-0.1,0-0.3,0-0.7v-6.9h-1.7v7.4c0,0.7,0.1,1.1,0.1,1.4c0.2,0.5,0.5,0.7,1.1,0.7s1.3-0.4,1.9-1.1v1H28.3
				z"/>
		</g>
		<g>
			<path fill="#FFFFFF" d="M29.3,175.2c-0.6,0-0.8,0.4-0.8,1.3v0.9h1.7v-0.9C30.1,175.7,29.8,175.2,29.3,175.2z"/>
			<path fill="#FFFFFF" d="M23.1,175.2c-0.3,0-0.6,0.1-0.8,0.4v5.6c0.3,0.3,0.6,0.4,0.8,0.4c0.5,0,0.7-0.4,0.7-1.2v-3.9
				C23.8,175.7,23.5,175.2,23.1,175.2z"/>
			<path fill="#FFFFFF" d="M33.3,170.6c-0.3-1.5-1.5-2.6-3-2.7c-3.4-0.4-6.9-0.4-10.3-0.4c-3.5,0-6.9,0-10.3,0.4
				c-1.4,0.2-2.6,1.2-3,2.7c-0.5,2.1-0.5,4.4-0.5,6.5c0,2.2,0,4.4,0.5,6.5c0.3,1.5,1.5,2.6,3,2.7c3.4,0.4,6.9,0.4,10.3,0.4
				c3.5,0,6.9,0,10.3-0.4c1.4-0.2,2.6-1.2,3-2.7c0.5-2.1,0.5-4.4,0.5-6.5C33.8,174.9,33.8,172.6,33.3,170.6z M14.1,172.4h-2V183
				h-1.9v-10.6h-2v-1.7H14L14.1,172.4L14.1,172.4z M19.1,183.1h-1.7v-1c-0.7,0.8-1.3,1.1-1.9,1.1c-0.5,0-0.9-0.2-1.1-0.7
				c-0.1-0.3-0.1-0.7-0.1-1.4v-7.3H16v6.8c0,0.4,0,0.6,0,0.6c0,0.3,0.2,0.4,0.4,0.4c0.3,0,0.7-0.3,1.1-0.8v-7h1.7v9.3L19.1,183.1
				L19.1,183.1z M25.5,180.3c0,0.9-0.1,1.5-0.2,1.9c-0.2,0.7-0.7,1-1.3,1c-0.6,0-1.2-0.3-1.7-1v0.9h-1.7v-12.4h1.7v4
				c0.5-0.7,1.1-1,1.7-1c0.7,0,1.1,0.3,1.3,1c0.1,0.4,0.2,1,0.2,1.9V180.3z M31.8,178.8h-3.3v1.6c0,0.9,0.3,1.3,0.9,1.3
				c0.4,0,0.7-0.2,0.7-0.7c0-0.1,0-0.5,0-1.1h1.7v0.2c0,0.5,0,0.9,0,1.1c-0.1,0.4-0.2,0.7-0.4,1c-0.5,0.7-1.1,1-2,1s-1.5-0.3-2-0.9
				c-0.4-0.5-0.5-1.2-0.5-2.2v-3.2c0-1,0.2-1.7,0.5-2.2c0.5-0.6,1.1-0.9,2-0.9c0.8,0,1.5,0.3,2,0.9c0.3,0.5,0.5,1.2,0.5,2.2v1.9
				L31.8,178.8L31.8,178.8z"/>
		</g>
	</g>
</g>
<path fill="#BECCD6" d="M29.2,214c-0.1,0.1-0.1,0.1-0.2,0.1c0.8-3.4,1.2-7.2,1.3-10.8c0.4-0.2,0.9-0.4,1.5-0.4
	c1.7,0,2.9,1.3,2.9,2.9C34.7,209.3,32.2,211.5,29.2,214 M10.8,214c-3-2.5-5.5-4.7-5.5-8.1c0-1.7,1.3-2.9,2.9-2.9
	c0.6,0,1.1,0.1,1.5,0.4c0,3.6,0.5,7.4,1.3,10.8C10.9,214.1,10.9,214,10.8,214 M31.8,200c-2.2,0-4.1,1.2-5.1,2.9H13.3
	c-1-1.8-2.9-2.9-5.1-2.9c-3.3,0-5.9,2.6-5.9,5.9c0,4.8,3.3,7.6,6.5,10.3c1.4,1.2,2.8,2.4,3.8,3.6c1.2,3,2.6,5.4,4.2,6.8
	c4.6,4.9-5.9,4.2-5.9,8.6h17.8c0-4.3-10.1-3.7-6.2-8.3c1.8-1.3,3.4-3.8,4.6-7.1c1-1.3,2.4-2.4,3.8-3.6c3.2-2.8,6.5-5.6,6.5-10.3
	C37.6,202.6,35.1,200,31.8,200"/>
<path fill="#BECCD6" d="M23,266.7l3.2-3.2c0.7,0.9,1.1,2,1.3,3.2H23z M23,269.2h4.5c-0.2,1.2-0.7,2.3-1.3,3.2L23,269.2z M21.2,270.9
	l3.2,3.2c-0.9,0.7-2,1.1-3.2,1.3V270.9z M18.8,270.9v4.5c-1.2-0.2-2.3-0.7-3.2-1.3L18.8,270.9z M17,269.2l-3.2,3.2
	c-0.7-0.9-1.1-2-1.3-3.2H17z M17,266.7h-4.5c0.2-1.2,0.7-2.3,1.3-3.2L17,266.7z M18.8,264.9l-3.2-3.2c0.9-0.7,2-1.1,3.2-1.3V264.9z
	 M21.2,260.4c1.2,0.2,2.3,0.7,3.2,1.3l-3.2,3.2V260.4z M36,266h-4.7c-0.5,0-1,0.2-1.3,0.5c-0.2-1.8-0.9-3.4-2-4.8
	c0.5,0,0.9-0.2,1.3-0.5l3.3-3.3c0.7-0.7,0.7-2,0-2.7s-1.9-0.7-2.7,0l-3.3,3.3c-0.4,0.4-0.5,0.8-0.5,1.3c-1.4-1-3-1.7-4.7-2
	c0.3-0.3,0.5-0.8,0.5-1.3v-4.7c0-1.1-0.9-1.9-1.9-1.9s-1.9,0.9-1.9,1.9v4.7c0,0.5,0.2,1,0.5,1.3c-1.8,0.2-3.4,0.9-4.7,2
	c0-0.5-0.2-0.9-0.5-1.3l-3.3-3.3c-0.7-0.7-2-0.7-2.7,0s-0.7,1.9,0,2.7l3.3,3.3c0.4,0.4,0.8,0.5,1.3,0.5c-1,1.4-1.7,3-2,4.8
	c-0.3-0.3-0.8-0.5-1.3-0.5H4c-1.1,0-1.9,0.9-1.9,1.9s0.8,1.9,1.9,1.9h4.7c0.5,0,1-0.2,1.3-0.5c0.2,1.8,0.9,3.4,2,4.7
	c-0.5,0-0.9,0.2-1.3,0.5l-3.3,3.3c-0.7,0.7-0.7,1.9,0,2.7c0.7,0.7,2,0.7,2.7,0l3.3-3.3c0.4-0.4,0.5-0.8,0.5-1.3c1.4,1,3,1.7,4.7,2
	c-0.3,0.3-0.5,0.8-0.5,1.3v4.7c0,1.1,0.9,1.9,1.9,1.9c1.1,0,1.9-0.9,1.9-1.9v-4.7c0-0.5-0.2-1-0.5-1.3c1.8-0.2,3.4-0.9,4.7-2
	c0,0.5,0.2,0.9,0.5,1.3l3.3,3.3c0.7,0.7,1.9,0.7,2.7,0c0.7-0.7,0.7-1.9,0-2.7l-3.3-3.3c-0.4-0.4-0.8-0.5-1.3-0.5c1-1.4,1.7-3,2-4.7
	c0.3,0.3,0.8,0.5,1.3,0.5H36c1.1,0,1.9-0.9,1.9-1.9S37.1,266,36,266"/>
<path fill="#FFFFFF" d="M23,416.8l3.2-3.2c0.7,0.9,1.1,2,1.3,3.2H23z M23,419.3h4.5c-0.2,1.2-0.7,2.3-1.3,3.2L23,419.3z M21.2,421
	l3.2,3.2c-0.9,0.7-2,1.1-3.2,1.3V421z M18.8,421v4.5c-1.2-0.2-2.3-0.7-3.2-1.3L18.8,421z M17,419.3l-3.2,3.2c-0.7-0.9-1.1-2-1.3-3.2
	H17z M17,416.8h-4.5c0.2-1.2,0.7-2.3,1.3-3.2L17,416.8z M18.8,415l-3.2-3.2c0.9-0.7,2-1.1,3.2-1.3V415z M21.2,410.5
	c1.2,0.2,2.3,0.7,3.2,1.3l-3.2,3.2V410.5z M36,416.1h-4.7c-0.5,0-1,0.2-1.3,0.5c-0.2-1.8-0.9-3.4-2-4.8c0.5,0,0.9-0.2,1.3-0.5
	l3.3-3.3c0.7-0.7,0.7-2,0-2.7s-1.9-0.7-2.7,0l-3.3,3.3c-0.4,0.4-0.5,0.8-0.5,1.3c-1.4-1-3-1.7-4.7-2c0.3-0.3,0.5-0.8,0.5-1.3v-4.7
	c0-1.1-0.9-1.9-1.9-1.9s-1.9,0.9-1.9,1.9v4.7c0,0.5,0.2,1,0.5,1.3c-1.8,0.2-3.4,0.9-4.7,2c0-0.5-0.2-0.9-0.5-1.3l-3.3-3.3
	c-0.7-0.7-2-0.7-2.7,0s-0.7,1.9,0,2.7l3.3,3.3c0.4,0.4,0.8,0.5,1.3,0.5c-1,1.4-1.7,3-2,4.8c-0.3-0.3-0.8-0.5-1.3-0.5H4
	c-1.1,0-1.9,0.9-1.9,1.9s0.8,1.9,1.9,1.9h4.7c0.5,0,1-0.2,1.3-0.5c0.2,1.8,0.9,3.4,2,4.7c-0.5,0-0.9,0.2-1.3,0.5l-3.3,3.3
	c-0.7,0.7-0.7,1.9,0,2.7c0.7,0.7,2,0.7,2.7,0l3.3-3.3c0.4-0.4,0.5-0.8,0.5-1.3c1.4,1,3,1.7,4.7,2c-0.3,0.3-0.5,0.8-0.5,1.3v4.7
	c0,1.1,0.9,1.9,1.9,1.9c1.1,0,1.9-0.9,1.9-1.9v-4.7c0-0.5-0.2-1-0.5-1.3c1.8-0.2,3.4-0.9,4.7-2c0,0.5,0.2,0.9,0.5,1.3l3.3,3.3
	c0.7,0.7,1.9,0.7,2.7,0c0.7-0.7,0.7-1.9,0-2.7l-3.3-3.3c-0.4-0.4-0.8-0.5-1.3-0.5c1-1.4,1.7-3,2-4.7c0.3,0.3,0.8,0.5,1.3,0.5H36
	c1.1,0,1.9-0.9,1.9-1.9S37.1,416.1,36,416.1"/>
<path fill="#BECCD6" d="M20,307.1c-1.3,0-2.4-1.1-2.4-2.4s1.1-2.4,2.4-2.4s2.4,1.1,2.4,2.4S21.3,307.1,20,307.1 M29.5,323.8l1.3,0.4
	c-1.9,3.1-5.3,4.4-9.1,4.7v-15.6h3.6c0.3,0.3,0.7,0.5,1.2,0.5c0.9,0,1.6-0.7,1.6-1.6s-0.7-1.7-1.6-1.7c-0.5,0-0.9,0.2-1.2,0.5h-3.6
	v-2c1.7-0.7,3-2.4,3-4.3c0-2.6-2.1-4.7-4.7-4.7s-4.7,2.1-4.7,4.7c0,2.1,1.4,3.9,3.4,4.5v1.8h-4c-0.3-0.3-0.7-0.5-1.2-0.5
	c-0.9,0-1.7,0.7-1.7,1.7c0,0.9,0.7,1.6,1.7,1.6c0.5,0,0.9-0.2,1.2-0.5h4v15.6c-4.1-0.3-7.6-1.9-9.4-5.2l1.3-0.3l-4-4.4l-1.8,5.7
	l1.5-0.3c2.2,4.9,7.3,8.8,13,9.2l0.9,1.8l0.9-1.8c5.4-0.4,10.3-4,12.7-8.5l1.5,0.4l-1.4-5.8L29.5,323.8z"/>
<polygon fill="#BECCD6" points="22.6,350 22.6,375.2 5.5,375.2 10.4,383.1 31.5,383.1 36.4,375.2 24.7,375.2 24.7,350 "/>
<polygon fill="#BECCD6" points="2.7,373 20.9,373 20.9,351.2 "/>
<polygon fill="#BECCD6" points="26.6,372.9 37.3,372.9 26.6,360 "/>
<g>
	<path fill="#FFFFFF" d="M25.2,475l-12.9-20h2.5l12.9,20l-12.9,20h-2.5L25.2,475z"/>
</g>
<g>
	<path fill="#FFFFFF" d="M14.8,525l12.9,20h-2.5l-12.9-20l12.9-20h2.5L14.8,525z"/>
</g>
</svg>
