<?xml version="1.0" encoding="utf-8"?>
<!-- Generator: Adobe Illustrator 18.0.0, SVG Export Plug-In . SVG Version: 6.00 Build 0)  -->
<!DOCTYPE svg PUBLIC "-//W3C//DTD SVG 1.1//EN" "http://www.w3.org/Graphics/SVG/1.1/DTD/svg11.dtd">
<svg version="1.1" id="Layer_1" xmlns="http://www.w3.org/2000/svg" xmlns:xlink="http://www.w3.org/1999/xlink" x="0px" y="0px"
	 width="40px" height="550px" viewBox="0 0 40 550" enable-background="new 0 0 40 550" xml:space="preserve">
<path fill="#FFFFFF" d="M19.6,157.9c-0.5,0-0.8,0.4-0.8,1.3v3.9c0,0.9,0.3,1.3,0.8,1.3s0.8-0.4,0.8-1.3v-3.9
	C20.4,158.3,20.1,157.9,19.6,157.9z"/>
<g id="hamburger">
	<g>
		<path fill="#FFFFFF" d="M37.1,11.4H2.9c-1.6,0-2.9,1.3-2.9,2.9s1.3,2.9,2.9,2.9h34.3c1.6,0,2.9-1.3,2.9-2.9
			C40,12.7,38.7,11.4,37.1,11.4z M2.9,5.7h34.3c1.6,0,2.9-1.3,2.9-2.9C40,1.3,38.7,0,37.1,0H2.9C1.3,0,0,1.3,0,2.9
			C0,4.4,1.3,5.7,2.9,5.7z M37.1,22.9H2.9c-1.6,0-2.9,1.3-2.9,2.9s1.3,2.9,2.9,2.9h34.3c1.6,0,2.9-1.3,2.9-2.9
			C40,24.1,38.7,22.9,37.1,22.9z"/>
	</g>
</g>
<path fill="#FFFFFF" d="M34,50H6c-3.3,0-6,2.7-6,6v28c0,3.3,2.7,6,6,6h28c3.3,0,6-2.7,6-6V56C40,52.7,37.3,50,34,50z M34.1,67.2
	L34,72.4h-5.5v14.7h-5.6V72.4H19v-5.3h3.9v-4.5c0-3.6,2.3-6.8,7.6-6.8c2.1,0,3.7,0.2,3.7,0.2L34,61c0,0-1.6,0-3.4,0
	c-1.9,0-2.2,0.9-2.2,2.3v3.9H34.1z"/>
<path fill="#FFFFFF" d="M34,100H6c-3.3,0-6,2.7-6,6v28c0,3.3,2.7,6,6,6h28c3.3,0,6-2.7,6-6v-28C40,102.7,37.3,100,34,100z
	 M12.5,134.5H6V115h6.5V134.5z M9.3,112.3c-2.2,0-3.6-1.5-3.6-3.4c0-1.9,1.5-3.4,3.7-3.4c2.2,0,3.6,1.5,3.6,3.4
	C13,110.8,11.6,112.3,9.3,112.3z M35.9,134.4h-6.5V124c0-2.6-1-4.4-3.3-4.4c-1.8,0-2.8,1.2-3.3,2.4c-0.2,0.4-0.2,1-0.2,1.6v10.9
	h-6.5c0,0,0.1-17.7-0.1-19.5h6.5v2.7c0.9-1.3,2.4-3.3,5.9-3.3c4.3,0,7.5,2.8,7.5,8.8V134.4z"/>
<path fill="#FFFFFF" d="M34,150H6c-3.3,0-6,2.7-6,6v28c0,3.3,2.7,6,6,6h28c3.3,0,6-2.7,6-6v-28C40,152.7,37.3,150,34,150z
	 M23.4,156.4h1.7v6.9c0,0.4,0,0.6,0,0.7c0,0.3,0.2,0.4,0.4,0.4c0.4,0,0.7-0.3,1.1-0.8v-7.1h1.7v9.3h-1.8v-1
	c-0.6,0.7-1.3,1.1-1.9,1.1c-0.6,0-0.9-0.2-1.1-0.7c0-0.3-0.1-0.7-0.1-1.4V156.4z M19.6,156.3c0.9,0,1.5,0.4,2,1
	c0.3,0.5,0.5,1.2,0.5,2.2v3.3c0,1-0.2,1.7-0.5,2.2c-0.5,0.7-1.2,1-2,1c-0.9,0-1.5-0.4-2-1c-0.3-0.5-0.5-1.2-0.5-2.2v-3.3
	c0-1,0.1-1.7,0.5-2.2C18.1,156.6,18.8,156.3,19.6,156.3z M12.6,153.3l1.3,4.9l1.3-4.9h1.9l-2.3,7.5v5.1h-1.9v-5.1
	c-0.1-0.9-0.5-2.3-1.1-4c-0.4-1.2-0.8-2.3-1.2-3.5H12.6z M33.3,183.6c-0.4,1.5-1.6,2.5-3,2.7c-3.4,0.4-6.8,0.4-10.3,0.4
	c-3.4,0-6.9,0-10.3-0.4c-1.5-0.1-2.7-1.2-3-2.7c-0.5-2.1-0.5-4.3-0.5-6.5c0-2.1,0-4.4,0.5-6.5c0.4-1.5,1.6-2.5,3-2.7
	c3.4-0.4,6.8-0.4,10.3-0.4c3.4,0,6.9,0,10.3,0.4c1.5,0.1,2.7,1.2,3,2.7c0.5,2,0.5,4.3,0.5,6.5C33.8,179.2,33.8,181.5,33.3,183.6z"/>
<path fill="#BECCD6" d="M29.2,214c-0.1,0.1-0.1,0.1-0.2,0.1c0.8-3.4,1.2-7.2,1.3-10.8c0.4-0.2,0.9-0.4,1.5-0.4
	c1.7,0,2.9,1.3,2.9,2.9C34.7,209.3,32.2,211.5,29.2,214 M10.8,214c-3-2.5-5.5-4.7-5.5-8.1c0-1.7,1.3-2.9,2.9-2.9
	c0.6,0,1.1,0.1,1.5,0.4c0,3.6,0.5,7.4,1.3,10.8C10.9,214.1,10.9,214,10.8,214 M31.8,200c-2.2,0-4.1,1.2-5.1,2.9H13.3
	c-1-1.8-2.9-2.9-5.1-2.9c-3.3,0-5.9,2.6-5.9,5.9c0,4.8,3.3,7.6,6.5,10.3c1.4,1.2,2.8,2.4,3.8,3.6c1.2,3,2.6,5.4,4.2,6.8
	c4.6,4.9-5.9,4.2-5.9,8.6h17.8c0-4.3-10.1-3.7-6.2-8.3c1.8-1.3,3.4-3.8,4.6-7.1c1-1.3,2.4-2.4,3.8-3.6c3.2-2.8,6.5-5.6,6.5-10.3
	C37.6,202.6,35.1,200,31.8,200"/>
<path fill="#BECCD6" d="M23,266.7l3.2-3.2c0.7,0.9,1.1,2,1.3,3.2H23z M23,269.2h4.5c-0.2,1.2-0.7,2.3-1.3,3.2L23,269.2z M21.2,270.9
	l3.2,3.2c-0.9,0.7-2,1.1-3.2,1.3V270.9z M18.8,270.9v4.5c-1.2-0.2-2.3-0.7-3.2-1.3L18.8,270.9z M17,269.2l-3.2,3.2
	c-0.7-0.9-1.1-2-1.3-3.2H17z M17,266.7h-4.5c0.2-1.2,0.7-2.3,1.3-3.2L17,266.7z M18.8,264.9l-3.2-3.2c0.9-0.7,2-1.1,3.2-1.3V264.9z
	 M21.2,260.4c1.2,0.2,2.3,0.7,3.2,1.3l-3.2,3.2V260.4z M36,266h-4.7c-0.5,0-1,0.2-1.3,0.5c-0.2-1.8-0.9-3.4-2-4.8
	c0.5,0,0.9-0.2,1.3-0.5l3.3-3.3c0.7-0.7,0.7-2,0-2.7s-1.9-0.7-2.7,0l-3.3,3.3c-0.4,0.4-0.5,0.8-0.5,1.3c-1.4-1-3-1.7-4.7-2
	c0.3-0.3,0.5-0.8,0.5-1.3v-4.7c0-1.1-0.9-1.9-1.9-1.9s-1.9,0.9-1.9,1.9v4.7c0,0.5,0.2,1,0.5,1.3c-1.8,0.2-3.4,0.9-4.7,2
	c0-0.5-0.2-0.9-0.5-1.3l-3.3-3.3c-0.7-0.7-2-0.7-2.7,0s-0.7,1.9,0,2.7l3.3,3.3c0.4,0.4,0.8,0.5,1.3,0.5c-1,1.4-1.7,3-2,4.8
	c-0.3-0.3-0.8-0.5-1.3-0.5H4c-1.1,0-1.9,0.9-1.9,1.9s0.8,1.9,1.9,1.9h4.7c0.5,0,1-0.2,1.3-0.5c0.2,1.8,0.9,3.4,2,4.7
	c-0.5,0-0.9,0.2-1.3,0.5l-3.3,3.3c-0.7,0.7-0.7,1.9,0,2.7c0.7,0.7,2,0.7,2.7,0l3.3-3.3c0.4-0.4,0.5-0.8,0.5-1.3c1.4,1,3,1.7,4.7,2
	c-0.3,0.3-0.5,0.8-0.5,1.3v4.7c0,1.1,0.9,1.9,1.9,1.9c1.1,0,1.9-0.9,1.9-1.9v-4.7c0-0.5-0.2-1-0.5-1.3c1.8-0.2,3.4-0.9,4.7-2
	c0,0.5,0.2,0.9,0.5,1.3l3.3,3.3c0.7,0.7,1.9,0.7,2.7,0c0.7-0.7,0.7-1.9,0-2.7l-3.3-3.3c-0.4-0.4-0.8-0.5-1.3-0.5c1-1.4,1.7-3,2-4.7
	c0.3,0.3,0.8,0.5,1.3,0.5H36c1.1,0,1.9-0.9,1.9-1.9S37.1,266,36,266"/>
<path fill="#FFFFFF" d="M23,416.8l3.2-3.2c0.7,0.9,1.1,2,1.3,3.2H23z M23,419.3h4.5c-0.2,1.2-0.7,2.3-1.3,3.2L23,419.3z M21.2,421
	l3.2,3.2c-0.9,0.7-2,1.1-3.2,1.3V421z M18.8,421v4.5c-1.2-0.2-2.3-0.7-3.2-1.3L18.8,421z M17,419.3l-3.2,3.2c-0.7-0.9-1.1-2-1.3-3.2
	H17z M17,416.8h-4.5c0.2-1.2,0.7-2.3,1.3-3.2L17,416.8z M18.8,415l-3.2-3.2c0.9-0.7,2-1.1,3.2-1.3V415z M21.2,410.5
	c1.2,0.2,2.3,0.7,3.2,1.3l-3.2,3.2V410.5z M36,416.1h-4.7c-0.5,0-1,0.2-1.3,0.5c-0.2-1.8-0.9-3.4-2-4.8c0.5,0,0.9-0.2,1.3-0.5
	l3.3-3.3c0.7-0.7,0.7-2,0-2.7s-1.9-0.7-2.7,0l-3.3,3.3c-0.4,0.4-0.5,0.8-0.5,1.3c-1.4-1-3-1.7-4.7-2c0.3-0.3,0.5-0.8,0.5-1.3v-4.7
	c0-1.1-0.9-1.9-1.9-1.9s-1.9,0.9-1.9,1.9v4.7c0,0.5,0.2,1,0.5,1.3c-1.8,0.2-3.4,0.9-4.7,2c0-0.5-0.2-0.9-0.5-1.3l-3.3-3.3
	c-0.7-0.7-2-0.7-2.7,0s-0.7,1.9,0,2.7l3.3,3.3c0.4,0.4,0.8,0.5,1.3,0.5c-1,1.4-1.7,3-2,4.8c-0.3-0.3-0.8-0.5-1.3-0.5H4
	c-1.1,0-1.9,0.9-1.9,1.9s0.8,1.9,1.9,1.9h4.7c0.5,0,1-0.2,1.3-0.5c0.2,1.8,0.9,3.4,2,4.7c-0.5,0-0.9,0.2-1.3,0.5l-3.3,3.3
	c-0.7,0.7-0.7,1.9,0,2.7c0.7,0.7,2,0.7,2.7,0l3.3-3.3c0.4-0.4,0.5-0.8,0.5-1.3c1.4,1,3,1.7,4.7,2c-0.3,0.3-0.5,0.8-0.5,1.3v4.7
	c0,1.1,0.9,1.9,1.9,1.9c1.1,0,1.9-0.9,1.9-1.9v-4.7c0-0.5-0.2-1-0.5-1.3c1.8-0.2,3.4-0.9,4.7-2c0,0.5,0.2,0.9,0.5,1.3l3.3,3.3
	c0.7,0.7,1.9,0.7,2.7,0c0.7-0.7,0.7-1.9,0-2.7l-3.3-3.3c-0.4-0.4-0.8-0.5-1.3-0.5c1-1.4,1.7-3,2-4.7c0.3,0.3,0.8,0.5,1.3,0.5H36
	c1.1,0,1.9-0.9,1.9-1.9S37.1,416.1,36,416.1"/>
<path fill="#BECCD6" d="M20,307.1c-1.3,0-2.4-1.1-2.4-2.4s1.1-2.4,2.4-2.4s2.4,1.1,2.4,2.4S21.3,307.1,20,307.1 M29.5,323.8l1.3,0.4
	c-1.9,3.1-5.3,4.4-9.1,4.7v-15.6h3.6c0.3,0.3,0.7,0.5,1.2,0.5c0.9,0,1.6-0.7,1.6-1.6s-0.7-1.7-1.6-1.7c-0.5,0-0.9,0.2-1.2,0.5h-3.6
	v-2c1.7-0.7,3-2.4,3-4.3c0-2.6-2.1-4.7-4.7-4.7s-4.7,2.1-4.7,4.7c0,2.1,1.4,3.9,3.4,4.5v1.8h-4c-0.3-0.3-0.7-0.5-1.2-0.5
	c-0.9,0-1.7,0.7-1.7,1.7c0,0.9,0.7,1.6,1.7,1.6c0.5,0,0.9-0.2,1.2-0.5h4v15.6c-4.1-0.3-7.6-1.9-9.4-5.2l1.3-0.3l-4-4.4l-1.8,5.7
	l1.5-0.3c2.2,4.9,7.3,8.8,13,9.2l0.9,1.8l0.9-1.8c5.4-0.4,10.3-4,12.7-8.5l1.5,0.4l-1.4-5.8L29.5,323.8z"/>
<polygon fill="#BECCD6" points="22.6,350 22.6,375.2 5.5,375.2 10.4,383.1 31.5,383.1 36.4,375.2 24.7,375.2 24.7,350 "/>
<polygon fill="#BECCD6" points="2.7,373 20.9,373 20.9,351.2 "/>
<polygon fill="#BECCD6" points="26.6,372.9 37.3,372.9 26.6,360 "/>
<g>
	<path fill="#FFFFFF" d="M25.2,475l-12.9-20h2.5l12.9,20l-12.9,20h-2.5L25.2,475z"/>
</g>
<g>
	<path fill="#FFFFFF" d="M14.8,525l12.9,20h-2.5l-12.9-20l12.9-20h2.5L14.8,525z"/>
</g>
<g>
	<polygon fill="#FFFFFF" points="8.2,170.7 8.2,172.4 10.2,172.4 10.2,183 12.1,183 12.1,172.4 14.1,172.4 14,170.7 	"/>
	<path fill="#FFFFFF" d="M24,173.7c-0.6,0-1.2,0.3-1.7,1v-4h-1.7v12.4h1.7v-0.9c0.5,0.7,1.1,1,1.7,1c0.6,0,1.1-0.3,1.3-1
		c0.1-0.4,0.2-1,0.2-1.9v-3.7c0-0.9-0.1-1.5-0.2-1.9C25.1,174,24.7,173.7,24,173.7z M23.8,180.4c0,0.8-0.2,1.2-0.7,1.2
		c-0.2,0-0.5-0.1-0.8-0.4v-5.6c0.2-0.3,0.5-0.4,0.8-0.4c0.4,0,0.7,0.5,0.7,1.3V180.4z"/>
	<path fill="#FFFFFF" d="M17.5,180.8c-0.4,0.5-0.8,0.8-1.1,0.8c-0.2,0-0.4-0.1-0.4-0.4c0,0,0-0.2,0-0.6v-6.8h-1.7v7.3
		c0,0.7,0,1.1,0.1,1.4c0.2,0.5,0.6,0.7,1.1,0.7c0.6,0,1.2-0.3,1.9-1.1v1h1.7l0.1,0v-9.3h-1.7V180.8z"/>
	<path fill="#FFFFFF" d="M31.4,174.7c-0.5-0.6-1.2-0.9-2-0.9c-0.9,0-1.5,0.3-2,0.9c-0.3,0.5-0.5,1.2-0.5,2.2v3.2
		c0,1,0.1,1.7,0.5,2.2c0.5,0.6,1.1,0.9,2,0.9s1.5-0.3,2-1c0.2-0.3,0.3-0.6,0.4-1c0-0.2,0-0.6,0-1.1v-0.2h-1.7c0,0.6,0,1,0,1.1
		c0,0.5-0.3,0.7-0.7,0.7c-0.6,0-0.9-0.4-0.9-1.3v-1.6h3.3h0.1v-1.9C31.9,175.9,31.7,175.2,31.4,174.7z M30.2,177.4h-1.7v-0.9
		c0-0.9,0.2-1.3,0.8-1.3c0.5,0,0.8,0.5,0.9,1.3V177.4z"/>
</g>
</svg>
