<?xml version="1.0" encoding="utf-8"?>
<!-- Generator: Adobe Illustrator 21.0.0, SVG Export Plug-In . SVG Version: 6.00 Build 0)  -->
<svg version="1.1" id="Layer_1" xmlns="http://www.w3.org/2000/svg" xmlns:xlink="http://www.w3.org/1999/xlink" x="0px" y="0px"
   width="50px" height="350px" viewBox="0 0 50 350" style="enable-background:new 0 0 50 350;" xml:space="preserve">
<style type="text/css">
  .st0{display:none;}
  .st1{display:inline;fill:#E24040;}
  .st2{fill:#FFFFFF;}
  .st3{fill:none;}
</style>
<g id="Layer_3" class="st0">
  <rect x="-26.2" y="100.8" class="st1" width="101.4" height="54.2"/>
</g>
<g id="Layer_2">
</g>
<path class="st2" d="M44.6,217c0,0-0.4-2.8-1.6-4c-1.5-1.6-3.2-1.6-4-1.7c-5.6-0.4-14-0.4-14-0.4s-8.4,0-14,0.4
  c-0.8,0.1-2.5,0.1-4,1.7c-1.2,1.2-1.6,4-1.6,4S5,220.2,5,223.5v3c0,3.2,0.4,6.5,0.4,6.5s0.4,2.8,1.6,4c1.5,1.6,3.5,1.5,4.4,1.7
  c3.2,0.3,13.6,0.4,13.6,0.4s8.4,0,14-0.4c0.8-0.1,2.5-0.1,4-1.7c1.2-1.2,1.6-4,1.6-4s0.4-3.2,0.4-6.5v-3C45,220.2,44.6,217,44.6,217
  z M20.9,230.2V219l10.8,5.6L20.9,230.2z"/>
<g>
  <path class="st2" d="M25.1,158.6c5.3,0,6,0,8.1,0.1c1.9,0.1,3,0.4,3.7,0.7c0.9,0.4,1.6,0.8,2.3,1.5c0.7,0.7,1.1,1.4,1.5,2.3
    c0.3,0.7,0.6,1.8,0.7,3.7c0.1,2.1,0.1,2.7,0.1,8.1s0,6-0.1,8.1c-0.1,1.9-0.4,3-0.7,3.7c-0.4,0.9-0.8,1.6-1.5,2.3
    c-0.7,0.7-1.4,1.1-2.3,1.5c-0.7,0.3-1.8,0.6-3.7,0.7c-2.1,0.1-2.7,0.1-8.1,0.1s-6,0-8.1-0.1c-1.9-0.1-3-0.4-3.7-0.7
    c-0.9-0.4-1.6-0.8-2.3-1.5c-0.7-0.7-1.1-1.4-1.5-2.3c-0.3-0.7-0.6-1.8-0.7-3.7c-0.1-2.1-0.1-2.7-0.1-8.1s0-6,0.1-8.1
    c0.1-1.9,0.4-3,0.7-3.7c0.4-0.9,0.8-1.6,1.5-2.3c0.7-0.7,1.4-1.1,2.3-1.5c0.7-0.3,1.8-0.6,3.7-0.7
    C19.1,158.6,19.8,158.6,25.1,158.6 M25.1,155c-5.4,0-6.1,0-8.2,0.1c-2.1,0.1-3.6,0.4-4.9,0.9s-2.4,1.2-3.5,2.3
    c-1.1,1.1-1.8,2.2-2.3,3.5s-0.8,2.7-0.9,4.9c-0.2,2.2-0.2,2.9-0.2,8.3s0,6.1,0.1,8.2c0.1,2.1,0.4,3.6,0.9,4.9
    c0.5,1.3,1.2,2.4,2.3,3.5c1.1,1.1,2.2,1.8,3.5,2.3s2.7,0.8,4.9,0.9c2.1,0.1,2.8,0.1,8.2,0.1s6.1,0,8.2-0.1c2.1-0.1,3.6-0.4,4.9-0.9
    c1.3-0.5,2.4-1.2,3.5-2.3c1.1-1.1,1.8-2.2,2.3-3.5c0.5-1.3,0.8-2.7,0.9-4.9c0.1-2.1,0.1-2.8,0.1-8.2s0-6.1-0.1-8.2
    c-0.1-2.1-0.4-3.6-0.9-4.9c-0.5-1.3-1.2-2.4-2.3-3.5c-1.1-1.1-2.2-1.8-3.5-2.3c-1.3-0.5-2.7-0.8-4.9-0.9
    C31.2,155,30.5,155,25.1,155L25.1,155z"/>
  <path class="st2" d="M25.1,164.8c-5.7,0-10.3,4.6-10.3,10.3s4.6,10.3,10.3,10.3s10.3-4.6,10.3-10.3S30.8,164.8,25.1,164.8z
     M25.1,181.8c-3.7,0-6.7-3-6.7-6.7s3-6.7,6.7-6.7s6.7,3,6.7,6.7S28.8,181.8,25.1,181.8z"/>
  <circle class="st2" cx="35.8" cy="164.3" r="2.4"/>
</g>
<path id="f" class="st2" d="M28.1,45V26.8h6.1l0.9-7.1h-7v-4.5c0-2.1,0.6-3.5,3.5-3.5l3.8,0V5.3C34.7,5.2,32.5,5,29.9,5
  c-5.4,0-9.1,3.3-9.1,9.4v5.2h-6.1v7.1h6.1V45H28.1z"/>
<g>
  <path class="st2" d="M17.6,91.3c15.1,0,23.3-12.5,23.3-23.3c0-0.4,0-0.7,0-1.1c1.6-1.2,3-2.6,4.1-4.2c-1.5,0.7-3.1,1.1-4.7,1.3
    c1.7-1,3-2.6,3.6-4.5c-1.6,0.9-3.3,1.6-5.2,2c-1.5-1.6-3.6-2.6-6-2.6c-4.5,0-8.2,3.7-8.2,8.2c0,0.6,0.1,1.3,0.2,1.9
    c-6.8-0.3-12.9-3.6-16.9-8.6c-0.7,1.2-1.1,2.6-1.1,4.1c0,2.8,1.4,5.4,3.7,6.8c-1.3,0-2.6-0.4-3.7-1c0,0,0,0.1,0,0.1
    c0,4,2.8,7.3,6.6,8c-0.7,0.2-1.4,0.3-2.2,0.3c-0.5,0-1-0.1-1.5-0.1c1,3.3,4.1,5.6,7.7,5.7c-2.8,2.2-6.3,3.5-10.2,3.5
    c-0.7,0-1.3,0-2-0.1C8.6,89.9,12.9,91.3,17.6,91.3"/>
</g>
<g>
  <g>
    <path class="st2" d="M17.7,122.5v5c0,0,4.9,0,6.9,0c-1.1,3.3-2.7,5-6.9,5c-4.2,0-7.4-3.4-7.4-7.5c0-4.2,3.3-7.5,7.4-7.5
      c2.2,0,3.6,0.8,4.9,1.9c1-1,1-1.2,3.6-3.7c-2.3-2.1-5.3-3.3-8.5-3.3C10.7,112.3,5,118,5,125c0,7,5.7,12.7,12.7,12.7
      c10.5,0,13.1-9.1,12.2-15.2C27.4,122.5,17.7,122.5,17.7,122.5z M40.6,122.7v-4.4h-3.1v4.4h-4.5v3.1h4.5v4.5h3.1v-4.5H45v-3.1H40.6
      z"/>
  </g>
</g>
<g>
  <path class="st2" d="M13.4,273.8l7.8,3.8c1.5,0.7,1.3,2.9-0.4,3.3l-8.4,2.1c-1,0.3-2.1-0.5-2.2-1.5c-0.3-2.3,0-4.6,0.7-6.7
    C11.2,273.8,12.4,273.3,13.4,273.8"/>
  <path class="st2" d="M16.5,289.8l5.8-6.4c1.1-1.2,3.2-0.4,3.1,1.3l-0.3,8.7c0,1.1-1,1.9-2.1,1.7c-2.2-0.4-4.4-1.2-6.2-2.5
    C15.9,291.9,15.8,290.6,16.5,289.8"/>
  <path class="st2" d="M30.2,281.2l8.2,2.7c1,0.3,1.5,1.5,1.1,2.5c-1,2-2.4,3.8-4.1,5.3c-0.8,0.7-2.1,0.5-2.7-0.4l-4.6-7.3
    C27.3,282.5,28.6,280.7,30.2,281.2"/>
  <path class="st2" d="M38.6,276l-8.3,2.4c-1.6,0.5-2.9-1.3-2-2.7l4.8-7.2c0.6-0.9,1.9-1.1,2.7-0.3c1.7,1.5,3,3.3,3.9,5.4
    C40.2,274.5,39.6,275.7,38.6,276"/>
  <path class="st2" d="M19.2,255.8c-1.5,0.4-2.9,0.9-4.3,1.6c-0.9,0.4-1.3,1.6-0.8,2.5l8.1,14.1c0.9,1.6,3.3,0.9,3.3-0.9v-16.3
    c0-1-0.9-1.9-1.9-1.8C22.2,255.1,20.7,255.4,19.2,255.8"/>
</g>
<g>
  <g>
    <circle class="st2" cx="15.1" cy="326.7" r="1.6"/>
    <circle class="st2" cx="34.9" cy="326.7" r="1.6"/>
    <g>
      <path class="st2" d="M11.7,323.3c-0.9,0.9-1.4,2.1-1.4,3.4c0,1.3,0.5,2.5,1.4,3.4c0.9,0.9,2.1,1.4,3.4,1.4c2.7,0,4.9-2.2,4.9-4.9
        c0-2.7-2.2-4.9-4.9-4.9C13.8,321.8,12.6,322.3,11.7,323.3z M12.7,329.1c-0.6-0.6-1-1.5-1-2.4c0-0.9,0.4-1.7,1-2.4
        c0.6-0.6,1.5-1,2.4-1c1.9,0,3.4,1.5,3.4,3.4c0,1.9-1.5,3.4-3.4,3.4C14.2,330.1,13.4,329.7,12.7,329.1z"/>
    </g>
    <g>
      <path class="st2" d="M31.5,323.3c-0.9,0.9-1.4,2.1-1.4,3.4c0,1.3,0.5,2.5,1.4,3.4c0.9,0.9,2.1,1.4,3.4,1.4c2.7,0,4.9-2.2,4.9-4.9
        c0-2.7-2.2-4.9-4.9-4.9C33.6,321.8,32.4,322.3,31.5,323.3z M32.5,329.1c-0.6-0.6-1-1.5-1-2.4c0-0.9,0.4-1.7,1-2.4
        c0.6-0.6,1.5-1,2.4-1c1.9,0,3.4,1.5,3.4,3.4c0,1.9-1.5,3.4-3.4,3.4C34,330.1,33.2,329.7,32.5,329.1z"/>
    </g>
    <g>
      <circle class="st3" cx="34.9" cy="326.7" r="8.1"/>
      <circle class="st3" cx="15.1" cy="326.7" r="8.1"/>
    </g>
    <path class="st2" d="M42.7,320.3c0.4-1.1,1-2.5,1.8-3.3h-6.6c-0.1,0-0.2-0.1-0.3-0.1c-0.4-0.6-2.8-3.7-12.7-3.7
      c-10.8,0-12.7,3.8-12.7,3.8H5.2c0.9,0.9,1.5,2.4,1.9,3.6c-1.3,1.7-2,3.8-2,6.1c0,5.6,4.5,10.1,10.1,10.1c3.1,0,5.9-1.4,7.7-3.6
      l2.3,3.2l2-3.3c1.9,2.3,4.7,3.7,7.8,3.7c5.6,0,10.1-4.5,10.1-10.1C45,324.3,44.1,322.1,42.7,320.3z M15.1,334.8
      c-4.5,0-8.1-3.6-8.1-8.1c0-4.5,3.6-8.1,8.1-8.1c4.5,0,8.1,3.6,8.1,8.1C23.2,331.2,19.6,334.8,15.1,334.8z M15.2,317.2
      c0,0,2.6-2.9,9.5-2.9h0.7c6.9,0,9.5,2.9,9.5,2.9s-7.4-1.2-9.9,7.9C22.6,316,15.2,317.2,15.2,317.2z M34.9,334.8
      c-4.5,0-8.1-3.6-8.1-8.1c0-4.5,3.6-8.1,8.1-8.1c4.5,0,8.1,3.6,8.1,8.1C43,331.2,39.4,334.8,34.9,334.8z"/>
  </g>
</g>
</svg>
