<svg xmlns="http://www.w3.org/2000/svg" width="470" height="50" viewBox="0 0 470 50"><defs><clipPath id="a"><path fill="#fff" d="M261.38 12.35h23.74V38.5h-23.74z"/></clipPath></defs><title>acy-social-icons</title><path fill="#fff" d="M26.9 37.5V26h3.8l.6-4.4h-4.4v-2.8c0-1.3.4-2.1 2.2-2.1h2.4v-4a26.56 26.56 0 0 0-3.4-.1c-3.4 0-5.7 2.1-5.7 5.9v3.3h-3.8v4.4h3.8v11.4h4.5zM59.8 34.7s-.2 0 1.1.9a17.25 17.25 0 0 0 8.3 2c11.6 0 17.9-9.6 17.9-17.9V19s0-.1.6-.6a18.65 18.65 0 0 0 2.6-2.8 10.62 10.62 0 0 1-3.7 1 6.5 6.5 0 0 0 2.8-3.5 17.6 17.6 0 0 1-4 1.6A6.3 6.3 0 0 0 74.5 19a7.57 7.57 0 0 0 .1 1.5 17.42 17.42 0 0 1-12.9-6.6 7 7 0 0 0-.9 3.2 6.14 6.14 0 0 0 2.8 5.2 8.23 8.23 0 0 1-2.8-.7c0 3 2.2 5.6 3.7 5.9 0 0 1.5.2 1.2.4a4.9 4.9 0 0 1-1.3.1 2.5 2.5 0 0 1-1-.1s-.2 0 .2 1.2a5.8 5.8 0 0 0 4.1 3s1.3 0 .2.9a11.64 11.64 0 0 1-7 2.1 3.74 3.74 0 0 0-1.1-.4M105.3 24.4a12.45 12.45 0 0 1 12.5-11.9 13 13 0 0 1 8.4 3.1c-1 1.2-2.1 2.2-3.1 3.3-2.9-2-6.9-2.5-9.8-.3-4 2.9-4.3 9.5-.4 12.5 3.8 3.5 11.1 1.7 12.1-3.5-2.4 0-4.8 0-7.2-.1v-4.3h12a14.9 14.9 0 0 1-2.2 9.7c-3.1 4.4-9.4 5.6-14.2 3.8a12.53 12.53 0 0 1-8.1-12.3M137.7 19.7h3.5v3.5h3.5v3.5h-3.5v3.5h-3.5v-3.5h-3.5v-3.5h3.5v-3.5"/><path fill="#fff" d="M242.4 17.9s-.4-2.5-1.4-3.5a5.8 5.8 0 0 0-3.5-1.6c-4.9-.4-12.4-.4-12.4-.4s-7.4 0-12.4.4a5 5 0 0 0-3.5 1.6c-1 1-1.4 3.5-1.4 3.5a45.93 45.93 0 0 0-.4 5.7v2.7a48.1 48.1 0 0 0 .4 5.7s.4 2.5 1.4 3.5c1.3 1.4 3.1 1.3 3.9 1.6 2.8.3 12 .4 12 .4s7.4 0 12.4-.4a5 5 0 0 0 3.5-1.6c1-1 1.4-3.5 1.4-3.5a45.93 45.93 0 0 0 .4-5.7v-2.6c-.1-2.9-.4-5.8-.4-5.8zm-21 11.8v-10l9.6 4.9zM382.9 13.42a12.46 12.46 0 0 0-12.4 12.4 12.2 12.2 0 0 0 7.4 11.3 8.63 8.63 0 0 1 .2-2.8c.3-1 1.6-6.7 1.6-6.7a4.85 4.85 0 0 1-.4-2c0-1.9 1.1-3.2 2.4-3.2a1.68 1.68 0 0 1 1.7 1.9 18.32 18.32 0 0 1-1.2 4.4 1.92 1.92 0 0 0 2 2.4c2.4 0 3.9-3 3.9-6.6 0-2.7-1.9-4.8-5.1-4.8a5.83 5.83 0 0 0-6.1 5.9 3.8 3.8 0 0 0 .8 2.4c.3.3.3.4.2.7s-.2.8-.3 1a.5.5 0 0 1-.6.4c-1.8-.7-2.6-2.6-2.6-4.7 0-3.5 3-7.8 8.9-7.8 4.7 0 7.9 3.5 7.9 7.2 0 4.9-2.7 8.5-6.7 8.5a3.37 3.37 0 0 1-3-1.6s-.7 2.8-.9 3.5a13.64 13.64 0 0 1-1.2 2.7 10.6 10.6 0 0 0 3.5.5 12.5 12.5 0 0 0 0-25zM174 14.7c3.3 0 3.7 0 5.1.1a12.43 12.43 0 0 1 2.3.4 7.46 7.46 0 0 1 1.5.9 3.77 3.77 0 0 1 .9 1.5 7.3 7.3 0 0 1 .4 2.3c.1 1.3.1 1.7.1 5.1s0 3.7-.1 5.1a12.43 12.43 0 0 1-.4 2.3 7.46 7.46 0 0 1-.9 1.5 3.77 3.77 0 0 1-1.5.9 7.3 7.3 0 0 1-2.3.4c-1.3.1-1.7.1-5.1.1s-3.7 0-5.1-.1a12.43 12.43 0 0 1-2.3-.4 7.46 7.46 0 0 1-1.5-.9 3.77 3.77 0 0 1-.9-1.5 7.3 7.3 0 0 1-.4-2.3c-.1-1.3-.1-1.7-.1-5.1s0-3.7.1-5.1a12.43 12.43 0 0 1 .4-2.3 7.46 7.46 0 0 1 .9-1.5 3.77 3.77 0 0 1 1.5-.9 7.3 7.3 0 0 1 2.3-.4c1.3-.1 1.7-.1 5.1-.1m0-2.2c-3.4 0-3.8 0-5.1.1a12.17 12.17 0 0 0-3.1.6 5.1 5.1 0 0 0-2.1 1.5 9.12 9.12 0 0 0-1.5 2.1 10.58 10.58 0 0 0-.6 3.1c-.1 1.4-.1 1.8-.1 5.2s0 3.8.1 5.1a12.17 12.17 0 0 0 .6 3.1 4.53 4.53 0 0 0 1.5 2.1 9.12 9.12 0 0 0 2.1 1.5 10.58 10.58 0 0 0 3.1.6c1.3.1 1.7.1 5.1.1s3.8 0 5.1-.1a12.17 12.17 0 0 0 3.1-.6 5.1 5.1 0 0 0 2.1-1.5 9.12 9.12 0 0 0 1.5-2.1 10.58 10.58 0 0 0 .6-3.1c.1-1.3.1-1.7.1-5.1s0-3.8-.1-5.1a12.17 12.17 0 0 0-.6-3.1 5.1 5.1 0 0 0-1.5-2.1 13.66 13.66 0 0 0-2.1-1.5 10.58 10.58 0 0 0-3.1-.6 27.94 27.94 0 0 0-5.1-.2zM174 18.6a6.4 6.4 0 1 0 6.4 6.4 6.38 6.38 0 0 0-6.4-6.4zm0 10.6a4.2 4.2 0 1 1 4.2-4.2 4.3 4.3 0 0 1-4.2 4.2z"/><circle cx="180.6" cy="18.3" r="1.5" fill="#fff"/><path fill="#fff" d="M436.3 20.1a5.5 5.5 0 0 0-4.9 2.7h-.1v-2.3h-5v16.7h5.2v-8.3c0-2.2.4-4.3 3.1-4.3s2.7 2.5 2.7 4.4v8.1h5.2v-9.2c0-4.4-.9-7.8-6.2-7.8z"/><circle cx="420.5" cy="15.2" r="3" fill="#fff"/><path fill="#fff" d="M417.9 20.5h5.2v16.7h-5.2zM261.38 12.35h23.74V38.5h-23.74z"/><g fill="#fff" clip-path="url(#a)"><path d="M264 24.62l6.2 2.48c1.2.48 1 1.9-.28 2.18l-6.7 1.37a1.43 1.43 0 0 1-1.75-1 8.36 8.36 0 0 1 .56-4.35 1.53 1.53 0 0 1 2-.67M266.48 35.1l4.6-4.22c.9-.8 2.53-.26 2.5.83l-.25 5.66a1.37 1.37 0 0 1-1.66 1.1 13.8 13.8 0 0 1-4.94-1.63 1 1 0 0 1-.25-1.74M277.42 29.5l6.58 1.74a1.12 1.12 0 0 1 .84 1.6 10.54 10.54 0 0 1-3.28 3.46 1.6 1.6 0 0 1-2.1-.28l-3.67-4.8c-.7-.92.38-2.06 1.64-1.73M284.1 26.06l-6.64 1.56c-1.28.3-2.3-.87-1.57-1.77l3.84-4.7a1.63 1.63 0 0 1 2.12-.22 10.4 10.4 0 0 1 3.14 3.54 1.14 1.14 0 0 1-.9 1.6M268.6 12.86a21.34 21.34 0 0 0-3.4 1 1.07 1.07 0 0 0-.63 1.63l6.48 9.2c.73 1 2.65.6 2.65-.58v-10.6a1.33 1.33 0 0 0-1.53-1.17 23.38 23.38 0 0 0-3.58.5"/></g><path fill="#fff" d="M332 11.68a25 25 0 0 1 3.8.9 25.86 25.86 0 0 1 6.2 2.8.92.92 0 0 0 .47.14h7.36s0 .06 0 .07l-.32.48a14 14 0 0 0-1.8 3.78.45.45 0 0 0 0 .42 11.6 11.6 0 0 1-9.44 18.33 10.86 10.86 0 0 1-2.77-.35 11.55 11.55 0 0 1-5.67-3.35c-.2-.22-.4-.45-.62-.7l-2.47 3.7-2.43-3.64h-.13a11.42 11.42 0 0 1-7.17 4.2 11.18 11.18 0 0 1-4.78-.27 11.58 11.58 0 0 1-6.4-17.9.5.5 0 0 0 .07-.34 13.23 13.23 0 0 0-1.64-3.5 9 9 0 0 0-.58-.8v-.1h7.12a.62.62 0 0 0 .3-.08 25.33 25.33 0 0 1 5.2-2.48 27.87 27.87 0 0 1 4-1.1 32.05 32.05 0 0 1 4-.52 34.1 34.1 0 0 1 7.7.3zM329.12 27a9.23 9.23 0 1 0 9-9.2 9.24 9.24 0 0 0-9 9.2zm-13.84-9.22a9.22 9.22 0 1 0 9.23 9.25 9.22 9.22 0 0 0-9.22-9.22zm.45-2.4a11.75 11.75 0 0 1 11.1 10.05 11.75 11.75 0 0 1 10.9-10 26.4 26.4 0 0 0-10.28-2.14 28.57 28.57 0 0 0-11.72 2.1zM338.33 21.2a5.72 5.72 0 1 1-5.73 5.72 5.7 5.7 0 0 1 5.73-5.7zm3.73 5.72a3.74 3.74 0 0 0-7.47 0 3.74 3.74 0 1 0 7.46 0zM315.15 21.2a5.72 5.72 0 1 1-5.73 5.7 5.7 5.7 0 0 1 5.73-5.7zm3.73 5.7a3.74 3.74 0 1 0-3.73 3.76 3.73 3.73 0 0 0 3.73-3.75zM338.33 25a1.9 1.9 0 0 1 0 3.8 1.9 1.9 0 1 1 0-3.8zM315.14 25a1.9 1.9 0 1 1 0 3.82 1.9 1.9 0 1 1 0-3.82z"/></svg>